<svg width="143" height="140" viewBox="0 0 143 140" fill="none" xmlns="http://www.w3.org/2000/svg">
<path d="M42.5195 31.6501C42.5195 31.6501 42.8395 31.6201 43.4095 31.5801C43.9795 31.5301 44.7895 31.4801 45.7595 31.4201C46.7295 31.3601 47.8695 31.3001 49.0795 31.2301C50.2995 31.1501 51.5895 31.1301 52.8895 31.0801C55.4795 31.0001 58.0695 30.8701 60.0195 30.8501C61.9595 30.8301 63.2595 30.8101 63.2595 30.8101V31.7901L42.5195 31.7501V31.6401V31.6501Z" fill="#191A23"/>
<path d="M79.6289 30.8201C79.6289 30.8201 80.9089 30.8301 82.8289 30.8601C83.7889 30.8601 84.9089 30.9201 86.1089 30.9601C87.3089 31.0001 88.5889 31.0501 89.8689 31.0901C91.1489 31.1401 92.4289 31.1601 93.6289 31.2401C94.8289 31.3101 95.9489 31.3701 96.9089 31.4301C97.8689 31.4801 98.6689 31.5401 99.2289 31.5801C99.7889 31.6201 100.109 31.6501 100.109 31.6501V31.7601L79.6289 31.8001V30.8201Z" fill="#191A23"/>
<path d="M80.8099 140C80.8099 140 73.1199 130.64 55.1899 127.6C37.7299 123.53 16.6099 106.48 11.1899 82.56C4.90989 58.86 15.4799 34.08 28.9799 22.5C42.3899 10.34 54.9699 8.44003 54.7099 8.28003C55.0099 8.64003 42.5499 10.81 29.4799 23.03C16.2999 34.68 6.25989 59.14 12.6299 82.2C18.1599 105.49 38.8399 121.81 55.7299 125.6C59.7799 126.22 63.3799 127.19 66.5399 128.32C78.4599 132.55 83.0399 138 83.0399 138L80.7999 140H80.8099Z" fill="#191A23"/>
<path d="M62.0308 140C62.0308 140 69.7208 130.64 87.6508 127.6C105.111 123.53 126.231 106.48 131.651 82.56C137.931 58.86 127.361 34.08 113.861 22.5C100.451 10.34 87.8708 8.44003 88.1308 8.28003C87.8308 8.64003 100.291 10.81 113.361 23.03C126.541 34.68 136.581 59.14 130.211 82.2C124.681 105.49 104.001 121.81 87.1108 125.6C83.0608 126.22 79.4608 127.19 76.3008 128.32C64.3808 132.55 59.8008 138 59.8008 138L62.0408 140H62.0308Z" fill="#191A23"/>
<path d="M50.0194 112.8C50.0194 112.8 54.9094 114.48 56.5294 118.38C58.5594 123.25 57.6794 127.33 57.6794 127.33C57.6794 127.33 52.7794 124.78 51.1394 122.14C48.8394 118.43 50.0194 112.79 50.0194 112.79V112.8Z" fill="#191A23"/>
<path d="M41.4492 134.2C41.4492 134.2 46.3892 135.72 49.9992 133.52C54.4992 130.77 56.1992 126.96 56.1992 126.96C56.1992 126.96 50.7392 126.14 47.8592 127.31C43.8192 128.95 41.4592 134.21 41.4592 134.21L41.4492 134.2Z" fill="#191A23"/>
<path d="M42.4097 108.6C42.4097 108.6 46.8397 111.05 47.7397 115.09C48.8597 120.14 47.3297 123.93 47.3297 123.93C47.3297 123.93 43.0397 120.64 41.8997 117.81C40.3097 113.84 42.4097 108.6 42.4097 108.6Z" fill="#191A23"/>
<path d="M30.4902 127.8C30.4902 127.8 35.0002 130.11 38.8602 128.6C43.6702 126.71 45.9602 123.32 45.9602 123.32C45.9602 123.32 40.8302 121.6 37.8502 122.24C33.6702 123.14 30.4902 127.81 30.4902 127.81V127.8Z" fill="#191A23"/>
<path d="M35.5798 103.15C35.5798 103.15 39.4398 106.27 39.6198 110.32C39.8498 115.38 37.7198 118.78 37.7198 118.78C37.7198 118.78 34.1398 114.87 33.5198 111.95C32.6598 107.85 35.5798 103.15 35.5798 103.15Z" fill="#191A23"/>
<path d="M20.8008 119.65C20.8008 119.65 24.7608 122.64 28.7408 121.84C33.7108 120.84 36.4908 117.95 36.4908 117.95C36.4908 117.95 31.8308 115.41 28.8508 115.52C24.6608 115.68 20.8108 119.64 20.8108 119.64L20.8008 119.65Z" fill="#191A23"/>
<path d="M29.7803 96.53C29.7803 96.53 32.9703 100.2 32.4603 104.14C31.8203 109.07 29.1903 111.98 29.1903 111.98C29.1903 111.98 26.4003 107.6 26.3003 104.67C26.1703 100.56 29.7803 96.53 29.7803 96.53Z" fill="#191A23"/>
<path d="M12.7109 109.95C12.7109 109.95 16.0209 113.51 20.0009 113.42C24.9609 113.3 28.1409 110.99 28.1409 110.99C28.1409 110.99 24.0809 107.75 21.1809 107.35C17.1109 106.79 12.7109 109.96 12.7109 109.96V109.95Z" fill="#191A23"/>
<path d="M25.1795 89.04C25.1795 89.04 27.6395 93.13 26.4695 96.84C25.0095 101.48 21.9795 103.85 21.9795 103.85C21.9795 103.85 20.0295 99.15 20.4395 96.31C21.0095 92.32 25.1895 89.04 25.1895 89.04H25.1795Z" fill="#191A23"/>
<path d="M6.41992 99.0799C6.41992 99.0799 9.00992 103.08 12.8699 103.67C17.6799 104.4 21.1399 102.71 21.1399 102.71C21.1399 102.71 17.7699 98.8899 15.0399 98.0099C11.2099 96.7699 6.41992 99.0899 6.41992 99.0899V99.0799Z" fill="#191A23"/>
<path d="M21.9987 80.8899C21.9987 80.8899 23.6787 85.2499 21.9187 88.6399C19.7187 92.8799 16.3887 94.6399 16.3887 94.6399C16.3887 94.6399 15.3087 89.7699 16.1787 87.0999C17.4087 83.3499 21.9987 80.8899 21.9987 80.8899Z" fill="#191A23"/>
<path d="M2.19922 87.3899C2.19922 87.3899 4.01922 91.6999 7.63922 92.9099C12.1592 94.4299 15.7892 93.3899 15.7892 93.3899C15.7892 93.3899 13.1892 89.1299 10.6992 87.8099C7.20922 85.9699 2.19922 87.3799 2.19922 87.3799V87.3899Z" fill="#191A23"/>
<path d="M20.2485 72.3501C20.2485 72.3501 21.1185 76.8501 18.8485 79.8201C16.0085 83.5301 12.4885 84.6701 12.4885 84.6701C12.4885 84.6701 12.2685 79.7801 13.5785 77.3601C15.3985 73.9501 20.2485 72.3601 20.2485 72.3601V72.3501Z" fill="#191A23"/>
<path d="M0.0292969 75.25C0.0292969 75.25 1.0593 79.71 4.3393 81.51C8.4393 83.75 12.1193 83.36 12.1193 83.36C12.1193 83.36 10.3293 78.81 8.1593 77.12C5.0993 74.74 0.0292969 75.26 0.0292969 75.26V75.25Z" fill="#191A23"/>
<path d="M20.0097 63.5798C20.0097 63.5798 20.0897 68.0698 17.3897 70.5498C14.0197 73.6498 10.4297 74.1498 10.4297 74.1498C10.4297 74.1498 11.0497 69.3998 12.7197 67.2798C15.0597 64.2998 20.0097 63.5898 20.0097 63.5898V63.5798Z" fill="#191A23"/>
<path d="M0 62.9399C0 62.9399 0.23 67.4199 3.1 69.7099C6.68 72.5699 10.29 72.8199 10.29 72.8199C10.29 72.8199 9.34 68.1199 7.53 66.1199C4.99 63.3099 0 62.9399 0 62.9399Z" fill="#191A23"/>
<path d="M21.2609 54.6301C21.2609 54.6301 20.5709 58.9801 17.5409 60.9101C13.7609 63.3301 10.2109 63.2001 10.2109 63.2001C10.2109 63.2001 11.6209 58.7201 13.5909 56.9601C16.3509 54.4801 21.2509 54.6401 21.2509 54.6401L21.2609 54.6301Z" fill="#191A23"/>
<path d="M2.06073 50.6001C2.06073 50.6001 1.52073 54.9701 3.89073 57.6601C6.86073 61.0301 10.3007 61.8801 10.3007 61.8801C10.3007 61.8801 10.1807 57.1801 8.78073 54.9401C6.81073 51.7901 2.06073 50.5901 2.06073 50.5901V50.6001Z" fill="#191A23"/>
<path d="M24.069 45.89C24.069 45.89 22.669 49.97 19.419 51.32C15.359 53.01 11.959 52.28 11.959 52.28C11.959 52.28 14.079 48.2 16.289 46.83C19.379 44.91 24.079 45.89 24.079 45.89H24.069Z" fill="#191A23"/>
<path d="M6.21973 38.74C6.21973 38.74 4.95973 42.86 6.78973 45.87C9.07973 49.63 12.2597 51.04 12.2597 51.04C12.2597 51.04 12.9497 46.49 11.9697 44.09C10.5997 40.72 6.21973 38.75 6.21973 38.75V38.74Z" fill="#191A23"/>
<path d="M28.3991 37.79C28.3991 37.79 26.3591 41.49 22.9891 42.24C18.7791 43.18 15.6191 41.9 15.6191 41.9C15.6191 41.9 18.3591 38.32 20.7191 37.38C24.0291 36.05 28.3991 37.8 28.3991 37.8V37.79Z" fill="#191A23"/>
<path d="M12.399 27.8501C12.399 27.8501 10.479 31.6101 11.739 34.8301C13.309 38.8501 16.139 40.7501 16.139 40.7501C16.139 40.7501 17.579 36.4701 17.039 33.9901C16.289 30.5001 12.399 27.8601 12.399 27.8601V27.8501Z" fill="#191A23"/>
<path d="M34.1198 30.5799C34.1198 30.5799 31.5198 33.7999 28.1398 33.9499C23.9198 34.1399 21.0898 32.3699 21.0898 32.3699C21.0898 32.3699 24.3498 29.3799 26.7898 28.8699C30.2098 28.1499 34.1298 30.5799 34.1298 30.5799H34.1198Z" fill="#191A23"/>
<path d="M20.3593 18.26C20.3593 18.26 17.8693 21.57 18.5293 24.88C19.3693 29.02 21.7693 31.34 21.7693 31.34C21.7693 31.34 23.8893 27.46 23.7893 24.97C23.6593 21.47 20.3493 18.26 20.3493 18.26H20.3593Z" fill="#191A23"/>
<path d="M40.9505 24.5301C40.9505 24.5301 37.8905 27.1901 34.6005 26.7601C30.4905 26.2301 28.0605 24.0301 28.0605 24.0301C28.0605 24.0301 31.7105 21.7001 34.1505 21.6201C37.5805 21.5101 40.9405 24.5201 40.9405 24.5201L40.9505 24.5301Z" fill="#191A23"/>
<path d="M29.7705 10.3C29.7705 10.3 26.8005 13.07 26.8805 16.38C26.9805 20.52 28.9105 23.17 28.9105 23.17C28.9105 23.17 31.6105 19.78 31.9505 17.36C32.4205 13.96 29.7805 10.3 29.7805 10.3H29.7705Z" fill="#191A23"/>
<path d="M48.6803 19.7999C48.6803 19.7999 45.2703 21.8499 42.1703 20.8799C38.3003 19.6699 36.3203 17.1299 36.3203 17.1299C36.3203 17.1299 40.2403 15.5099 42.6103 15.8499C45.9303 16.3199 48.6703 19.8099 48.6703 19.8099L48.6803 19.7999Z" fill="#191A23"/>
<path d="M40.311 4.15991C40.311 4.15991 36.971 6.31991 36.491 9.52991C35.881 13.5399 37.291 16.4299 37.291 16.4299C37.291 16.4299 40.481 13.6199 41.211 11.3399C42.241 8.13991 40.311 4.15991 40.311 4.15991Z" fill="#191A23"/>
<path d="M56.9795 16.5201C56.9795 16.5201 53.3395 17.9201 50.5195 16.4501C46.9895 14.6201 45.5195 11.8401 45.5195 11.8401C45.5195 11.8401 49.5795 10.9401 51.8095 11.6701C54.9295 12.7001 56.9895 16.5201 56.9895 16.5201H56.9795Z" fill="#191A23"/>
<path d="M51.5703 0C51.5703 0 47.9803 1.52 46.9603 4.54C45.6903 8.31 46.5603 11.33 46.5603 11.33C46.5603 11.33 50.1103 9.16 51.2103 7.09C52.7503 4.18 51.5703 0 51.5703 0Z" fill="#191A23"/>
<path d="M51.7207 9.3C51.7207 9.3 54.4107 10.82 56.7907 10C59.7707 8.98 61.2407 6.96999 61.2407 6.96999C61.2407 6.96999 58.1707 5.79 56.3407 6.1C53.7707 6.54 51.7207 9.3 51.7207 9.3Z" fill="#191A23"/>
<path d="M92.8107 112.8C92.8107 112.8 87.9207 114.48 86.3007 118.38C84.2707 123.25 85.1507 127.33 85.1507 127.33C85.1507 127.33 90.0507 124.78 91.6907 122.14C93.9907 118.43 92.8107 112.79 92.8107 112.79V112.8Z" fill="#191A23"/>
<path d="M101.391 134.2C101.391 134.2 96.4506 135.72 92.8406 133.52C88.3406 130.77 86.6406 126.96 86.6406 126.96C86.6406 126.96 92.1006 126.14 94.9806 127.31C99.0206 128.95 101.391 134.21 101.391 134.21V134.2Z" fill="#191A23"/>
<path d="M100.42 108.6C100.42 108.6 95.98 111.05 95.09 115.09C93.96 120.14 95.5 123.93 95.5 123.93C95.5 123.93 99.79 120.64 100.93 117.81C102.52 113.84 100.42 108.6 100.42 108.6Z" fill="#191A23"/>
<path d="M112.351 127.8C112.351 127.8 107.841 130.11 103.981 128.6C99.1709 126.71 96.8809 123.32 96.8809 123.32C96.8809 123.32 102.011 121.6 104.991 122.24C109.171 123.14 112.351 127.81 112.351 127.81V127.8Z" fill="#191A23"/>
<path d="M107.26 103.15C107.26 103.15 103.4 106.27 103.22 110.32C102.99 115.38 105.12 118.78 105.12 118.78C105.12 118.78 108.7 114.87 109.32 111.95C110.18 107.85 107.26 103.15 107.26 103.15Z" fill="#191A23"/>
<path d="M122.03 119.65C122.03 119.65 118.07 122.64 114.09 121.84C109.12 120.84 106.34 117.95 106.34 117.95C106.34 117.95 111 115.41 113.98 115.52C118.17 115.68 122.02 119.64 122.02 119.64L122.03 119.65Z" fill="#191A23"/>
<path d="M113.059 96.53C113.059 96.53 109.859 100.2 110.379 104.14C111.019 109.07 113.649 111.98 113.649 111.98C113.649 111.98 116.439 107.6 116.539 104.67C116.669 100.56 113.059 96.53 113.059 96.53Z" fill="#191A23"/>
<path d="M130.119 109.95C130.119 109.95 126.799 113.51 122.829 113.42C117.869 113.3 114.689 110.99 114.689 110.99C114.689 110.99 118.749 107.75 121.649 107.35C125.719 106.79 130.119 109.96 130.119 109.96V109.95Z" fill="#191A23"/>
<path d="M117.66 89.04C117.66 89.04 115.2 93.13 116.37 96.84C117.83 101.48 120.86 103.85 120.86 103.85C120.86 103.85 122.81 99.15 122.4 96.31C121.83 92.32 117.66 89.04 117.66 89.04Z" fill="#191A23"/>
<path d="M136.409 99.0799C136.409 99.0799 133.819 103.08 129.959 103.67C125.149 104.4 121.689 102.71 121.689 102.71C121.689 102.71 125.059 98.8899 127.789 98.0099C131.629 96.7699 136.409 99.0899 136.409 99.0899V99.0799Z" fill="#191A23"/>
<path d="M120.831 80.8899C120.831 80.8899 119.151 85.2499 120.911 88.6399C123.111 92.8799 126.441 94.6399 126.441 94.6399C126.441 94.6399 127.521 89.7699 126.651 87.0999C125.421 83.3499 120.831 80.8899 120.831 80.8899Z" fill="#191A23"/>
<path d="M140.641 87.3899C140.641 87.3899 138.821 91.6999 135.201 92.9099C130.681 94.4299 127.061 93.3899 127.061 93.3899C127.061 93.3899 129.661 89.1299 132.141 87.8099C135.631 85.9699 140.641 87.3799 140.641 87.3799V87.3899Z" fill="#191A23"/>
<path d="M122.58 72.3501C122.58 72.3501 121.71 76.8501 123.98 79.8201C126.82 83.5301 130.34 84.6701 130.34 84.6701C130.34 84.6701 130.56 79.7801 129.26 77.3601C127.44 73.9501 122.59 72.3601 122.59 72.3601L122.58 72.3501Z" fill="#191A23"/>
<path d="M142.811 75.25C142.811 75.25 141.781 79.71 138.501 81.51C134.401 83.75 130.721 83.36 130.721 83.36C130.721 83.36 132.511 78.81 134.681 77.12C137.731 74.74 142.811 75.26 142.811 75.26V75.25Z" fill="#191A23"/>
<path d="M122.83 63.5798C122.83 63.5798 122.75 68.0698 125.45 70.5498C128.82 73.6498 132.41 74.1498 132.41 74.1498C132.41 74.1498 131.79 69.3998 130.12 67.2798C127.78 64.2998 122.83 63.5898 122.83 63.5898V63.5798Z" fill="#191A23"/>
<path d="M142.841 62.9399C142.841 62.9399 142.611 67.4199 139.751 69.7099C136.171 72.5699 132.561 72.8199 132.561 72.8199C132.561 72.8199 133.511 68.1199 135.321 66.1199C137.861 63.3099 142.851 62.9399 142.851 62.9399H142.841Z" fill="#191A23"/>
<path d="M121.57 54.6301C121.57 54.6301 122.26 58.9801 125.29 60.9101C129.07 63.3301 132.62 63.2001 132.62 63.2001C132.62 63.2001 131.21 58.7201 129.24 56.9601C126.48 54.4801 121.58 54.6401 121.58 54.6401L121.57 54.6301Z" fill="#191A23"/>
<path d="M140.781 50.6001C140.781 50.6001 141.321 54.9701 138.951 57.6601C135.981 61.0301 132.541 61.8801 132.541 61.8801C132.541 61.8801 132.661 57.1801 134.061 54.9401C136.031 51.7901 140.781 50.5901 140.781 50.5901V50.6001Z" fill="#191A23"/>
<path d="M118.76 45.89C118.76 45.89 120.16 49.97 123.41 51.32C127.47 53.01 130.87 52.28 130.87 52.28C130.87 52.28 128.75 48.2 126.54 46.83C123.45 44.91 118.75 45.89 118.75 45.89H118.76Z" fill="#191A23"/>
<path d="M136.61 38.74C136.61 38.74 137.87 42.86 136.04 45.87C133.75 49.63 130.57 51.04 130.57 51.04C130.57 51.04 129.88 46.49 130.86 44.09C132.23 40.72 136.61 38.75 136.61 38.75V38.74Z" fill="#191A23"/>
<path d="M114.43 37.79C114.43 37.79 116.47 41.49 119.84 42.24C124.05 43.18 127.21 41.9 127.21 41.9C127.21 41.9 124.47 38.32 122.11 37.38C118.8 36.05 114.43 37.8 114.43 37.8V37.79Z" fill="#191A23"/>
<path d="M130.441 27.8501C130.441 27.8501 132.361 31.6101 131.111 34.8301C129.541 38.8501 126.711 40.7501 126.711 40.7501C126.711 40.7501 125.271 36.4701 125.811 33.9901C126.561 30.5001 130.451 27.8601 130.451 27.8601L130.441 27.8501Z" fill="#191A23"/>
<path d="M108.709 30.5799C108.709 30.5799 111.319 33.7999 114.689 33.9499C118.909 34.1399 121.739 32.3699 121.739 32.3699C121.739 32.3699 118.479 29.3799 116.039 28.8699C112.619 28.1499 108.699 30.5799 108.699 30.5799H108.709Z" fill="#191A23"/>
<path d="M122.469 18.26C122.469 18.26 124.959 21.57 124.299 24.88C123.459 29.02 121.059 31.34 121.059 31.34C121.059 31.34 118.939 27.46 119.039 24.97C119.169 21.47 122.479 18.26 122.479 18.26H122.469Z" fill="#191A23"/>
<path d="M101.881 24.5301C101.881 24.5301 104.941 27.1901 108.231 26.7601C112.341 26.2301 114.771 24.0301 114.771 24.0301C114.771 24.0301 111.121 21.7001 108.681 21.6201C105.251 21.5101 101.891 24.5201 101.891 24.5201L101.881 24.5301Z" fill="#191A23"/>
<path d="M113.07 10.3C113.07 10.3 116.04 13.07 115.96 16.38C115.86 20.52 113.93 23.17 113.93 23.17C113.93 23.17 111.23 19.78 110.89 17.36C110.42 13.96 113.06 10.3 113.06 10.3H113.07Z" fill="#191A23"/>
<path d="M94.1504 19.7999C94.1504 19.7999 97.5604 21.8499 100.66 20.8799C104.53 19.6699 106.51 17.1299 106.51 17.1299C106.51 17.1299 102.59 15.5099 100.22 15.8499C96.9004 16.3199 94.1604 19.8099 94.1604 19.8099L94.1504 19.7999Z" fill="#191A23"/>
<path d="M102.521 4.15991C102.521 4.15991 105.861 6.31991 106.351 9.52991C106.961 13.5399 105.551 16.4299 105.551 16.4299C105.551 16.4299 102.371 13.6199 101.631 11.3399C100.601 8.13991 102.531 4.15991 102.531 4.15991H102.521Z" fill="#191A23"/>
<path d="M85.8498 16.5201C85.8498 16.5201 89.4898 17.9201 92.3098 16.4501C95.8398 14.6201 97.3098 11.8401 97.3098 11.8401C97.3098 11.8401 93.2498 10.9401 91.0198 11.6701C87.8998 12.7001 85.8398 16.5201 85.8398 16.5201H85.8498Z" fill="#191A23"/>
<path d="M91.27 0C91.27 0 94.86 1.52 95.88 4.54C97.15 8.31 96.28 11.33 96.28 11.33C96.28 11.33 92.73 9.16 91.63 7.09C90.09 4.18 91.27 0 91.27 0Z" fill="#191A23"/>
<path d="M91.1098 9.3C91.1098 9.3 88.4198 10.82 86.0398 10C83.0598 8.98 81.5898 6.96999 81.5898 6.96999C81.5898 6.96999 84.6698 5.79 86.4898 6.1C89.0598 6.54 91.1098 9.3 91.1098 9.3Z" fill="#191A23"/>
<path d="M35.4606 73.0098H27.3406V81.9798H36.3906V84.6698H24.6406V59.7998H35.9306V62.4898H27.3406V70.3498H35.4606V73.0098Z" fill="#191A23"/>
<path d="M38.5801 60.1299C40.2201 59.8399 42.1801 59.6099 44.3201 59.6099C48.2001 59.6099 50.9501 60.6799 52.7801 62.7099C54.6401 64.7399 55.7301 67.6199 55.7301 71.6399C55.7301 75.6599 54.6801 79.0199 52.7201 81.3099C50.7701 83.6299 47.5401 84.8899 43.4801 84.8899C41.5601 84.8899 39.9501 84.7799 38.5801 84.5999V60.1399V60.1299ZM41.2801 82.1199C41.9601 82.2699 42.9501 82.2999 44.0101 82.2999C49.7801 82.2999 52.9101 78.4599 52.9101 71.7499C52.9401 65.8799 50.1501 62.1599 44.4501 62.1599C43.0501 62.1599 42.0001 62.3099 41.2901 62.4899V82.1199H41.2801Z" fill="#191A23"/>
<path d="M60.6297 59.7998V84.6698H57.9297V59.7998H60.6297Z" fill="#191A23"/>
<path d="M68.0006 62.5298H61.6406V59.7998H77.1106V62.5298H70.7206V84.6698H67.9906V62.5298H68.0006Z" fill="#191A23"/>
<path d="M80.8406 59.7998V84.6698H78.1406V59.7998H80.8406Z" fill="#191A23"/>
<path d="M102.11 71.9699C102.11 80.5299 97.7398 85.0699 92.3998 85.0699C87.0598 85.0699 83.0098 79.9799 83.0098 72.4499C83.0098 64.5499 87.1298 59.3899 92.7198 59.3899C98.3098 59.3899 102.11 64.5899 102.11 71.9699ZM85.8898 72.3799C85.8898 77.6899 88.3098 82.4499 92.5598 82.4499C96.8098 82.4499 99.2598 77.7599 99.2598 72.1199C99.2598 67.1799 97.0898 62.0099 92.5898 62.0099C88.0898 62.0099 85.8898 66.9199 85.8898 72.3799Z" fill="#191A23"/>
<path d="M104.301 84.6698V59.7998H107.251L113.951 72.3798C115.501 75.2898 116.711 77.9098 117.701 80.4598L117.761 80.4198C117.511 77.0998 117.451 74.0698 117.451 70.1998V59.7898H119.991V84.6598H117.261L110.631 72.0398C109.171 69.2698 107.781 66.4298 106.721 63.7398L106.631 63.7798C106.791 66.9198 106.851 69.8998 106.851 74.0398V84.6698H104.311H104.301Z" fill="#191A23"/>
<path d="M41.1406 40.9001H42.8106V52.4101H48.3306V53.8101H41.1506V40.9001H41.1406Z" fill="#191A23"/>
<path d="M51.8399 40.9001V53.8101H50.1699V40.9001H51.8399Z" fill="#191A23"/>
<path d="M65.6204 48.1401C65.5204 46.3401 65.4104 44.1801 65.4304 42.5701H65.3704C64.9304 44.0801 64.3904 45.6901 63.7404 47.4701L61.4604 53.7301H60.2004L58.1104 47.5801C57.5004 45.7601 56.9804 44.0901 56.6204 42.5601H56.5804C56.5404 44.1701 56.4504 46.3301 56.3304 48.2701L55.9904 53.8001H54.4004L55.3004 40.8901H57.4304L59.6304 47.1301C60.1704 48.7201 60.6104 50.1401 60.9304 51.4801H60.9904C61.3204 50.1801 61.7804 48.7601 62.3504 47.1301L64.6504 40.8901H66.7804L67.5804 53.8001H65.9504L65.6204 48.1301V48.1401Z" fill="#191A23"/>
<path d="M71.8106 40.9001V53.8101H70.1406V40.9001H71.8106Z" fill="#191A23"/>
<path d="M77.1702 42.3201H73.2402V40.9001H82.8002V42.3201H78.8602V53.8101H77.1702V42.3201Z" fill="#191A23"/>
<path d="M90.9107 47.7601H85.8907V52.4101H91.4807V53.8101H84.2207V40.9001H91.1907V42.3001H85.8907V46.3801H90.9107V47.7601Z" fill="#191A23"/>
<path d="M93.6506 41.07C94.6706 40.92 95.8706 40.8 97.1906 40.8C99.5806 40.8 101.291 41.36 102.421 42.41C103.571 43.46 104.241 44.9601 104.241 47.0401C104.241 49.1201 103.591 50.8701 102.381 52.0601C101.171 53.2701 99.1806 53.92 96.6706 53.92C95.4806 53.92 94.4906 53.8601 93.6406 53.7701V41.07H93.6506ZM95.3206 52.48C95.7406 52.56 96.3506 52.5801 97.0106 52.5801C100.571 52.5801 102.511 50.59 102.511 47.1C102.531 44.06 100.811 42.12 97.2806 42.12C96.4206 42.12 95.7706 42.2001 95.3306 42.2901V52.48H95.3206Z" fill="#191A23"/>
<path d="M34.25 91.3C34.25 91.3 34.67 91.27 35.4 91.21C36.13 91.15 37.17 91.08 38.42 91.01C39.67 90.94 41.13 90.85 42.7 90.76C44.26 90.66 45.93 90.63 47.6 90.56C49.27 90.5 50.94 90.44 52.5 90.39C54.06 90.33 55.52 90.27 56.78 90.27C59.28 90.24 60.95 90.22 60.95 90.22V91.49L34.25 91.44V91.3Z" fill="#191A23"/>
<path d="M82.0195 90.23C82.0195 90.23 83.6695 90.25 86.1395 90.28C87.3795 90.28 88.8195 90.36 90.3595 90.4C91.8995 90.45 93.5495 90.51 95.1995 90.57C96.8495 90.64 98.4995 90.66 100.04 90.77C101.58 90.86 103.03 90.94 104.26 91.01C105.5 91.07 106.53 91.15 107.25 91.21C107.97 91.27 108.38 91.3 108.38 91.3V91.44L82.0195 91.49V90.23Z" fill="#191A23"/>
<path d="M72.311 88.8101L75.181 94.6201L81.591 95.5501L76.951 100.08L78.051 106.46L72.311 103.45L66.581 106.46L67.671 100.08L63.041 95.5501L69.451 94.6201L72.311 88.8101Z" fill="#191A23"/>
<path d="M92.6994 95.4399L94.6395 99.3599L98.9695 99.9899L95.8394 103.04L96.5795 107.35L92.6994 105.32L88.8295 107.35L89.5695 103.04L86.4395 99.9899L90.7694 99.3599L92.6994 95.4399Z" fill="#191A23"/>
<path d="M52.3403 95.4399L54.2703 99.3599L58.6003 99.9899L55.4703 103.04L56.2103 107.35L52.3403 105.32L48.4703 107.35L49.2103 103.04L46.0703 99.9899L50.4003 99.3599L52.3403 95.4399Z" fill="#191A23"/>
</svg>
