<svg width="133" height="131" viewBox="0 0 133 131" fill="none" xmlns="http://www.w3.org/2000/svg">
<path fill-rule="evenodd" clip-rule="evenodd" d="M103.481 16.45C101.391 16.61 99.2907 16.77 97.1907 16.93C98.7807 18 100.371 19.07 101.961 20.14C104.061 19.98 106.151 19.82 108.251 19.66C106.661 18.59 105.071 17.52 103.481 16.45ZM103.831 15.94C103.191 13.94 102.541 11.94 101.901 9.94C103.491 11.01 105.081 12.08 106.671 13.15C107.311 15.15 107.961 17.15 108.601 19.15C107.011 18.08 105.421 17.01 103.831 15.94ZM109.371 21.47C107.271 21.33 105.181 21.18 103.081 21.04C104.501 22.33 105.921 23.61 107.341 24.9C109.441 25.04 111.531 25.19 113.631 25.33C112.211 24.04 110.791 22.76 109.371 21.47ZM109.781 21.01C109.431 18.94 109.081 16.87 108.731 14.8C110.151 16.09 111.571 17.37 112.991 18.66C113.341 20.73 113.691 22.8 114.041 24.87C112.621 23.58 111.201 22.3 109.781 21.01ZM114.571 27.18C112.521 26.74 110.461 26.3 108.411 25.86C109.631 27.34 110.861 28.81 112.081 30.29C114.131 30.73 116.191 31.17 118.241 31.61C117.021 30.13 115.791 28.66 114.571 27.19V27.18ZM115.051 26.79C115.001 24.69 114.951 22.59 114.901 20.49C116.121 21.96 117.351 23.44 118.571 24.92C118.621 27.02 118.671 29.12 118.721 31.22C117.501 29.74 116.271 28.27 115.051 26.8V26.79ZM119.021 33.51C117.051 32.78 115.081 32.05 113.111 31.32C114.111 32.95 115.101 34.59 116.101 36.23C118.071 36.96 120.041 37.7 122.011 38.43C121.011 36.79 120.021 35.16 119.021 33.52V33.51ZM119.551 33.19C119.801 31.11 120.051 29.02 120.301 26.93C121.301 28.56 122.291 30.2 123.291 31.84C123.041 33.92 122.791 36.01 122.531 38.1C121.531 36.46 120.541 34.83 119.541 33.19H119.551ZM122.581 40.34C120.691 39.42 118.801 38.5 116.911 37.58C117.741 39.31 118.581 41.03 119.411 42.76C121.301 43.68 123.191 44.6 125.081 45.52C124.251 43.79 123.411 42.07 122.581 40.34ZM123.141 40.07C123.591 38.02 124.051 35.97 124.501 33.92C125.331 35.64 126.171 37.37 127.001 39.1C126.541 41.15 126.091 43.2 125.641 45.25C124.811 43.52 123.971 41.8 123.141 40.07ZM125.271 47.59C123.541 46.4 121.811 45.21 120.071 44.02C120.641 45.85 121.211 47.68 121.781 49.51C123.511 50.7 125.241 51.89 126.981 53.08C126.411 51.25 125.841 49.42 125.271 47.59ZM125.861 47.41C126.611 45.45 127.361 43.49 128.121 41.52C128.691 43.35 129.261 45.18 129.831 47.01C129.081 48.97 128.331 50.94 127.581 52.9C127.011 51.07 126.441 49.24 125.871 47.41H125.861ZM126.991 55.1C125.391 53.74 123.781 52.39 122.181 51.03C122.561 52.91 122.951 54.78 123.331 56.66C124.931 58.02 126.541 59.37 128.141 60.73C127.761 58.85 127.371 56.98 126.991 55.1ZM127.601 54.98C128.551 53.1 129.491 51.23 130.431 49.35C130.811 51.23 131.201 53.11 131.581 54.98C130.641 56.86 129.691 58.73 128.751 60.61C128.371 58.73 127.981 56.86 127.601 54.98ZM127.731 62.8C126.351 61.22 124.971 59.63 123.591 58.05C123.681 59.96 123.781 61.88 123.871 63.79C125.251 65.37 126.631 66.96 128.011 68.54C127.921 66.62 127.821 64.71 127.721 62.8H127.731ZM128.351 62.77C129.571 61.06 130.781 59.35 132.001 57.63C132.101 59.54 132.191 61.46 132.291 63.37C131.071 65.08 129.851 66.8 128.641 68.51C128.551 66.6 128.451 64.68 128.351 62.77ZM127.511 70.5C126.301 68.79 125.081 67.07 123.871 65.35C123.771 67.26 123.671 69.18 123.571 71.09C124.781 72.8 126.001 74.52 127.211 76.24C127.311 74.33 127.411 72.41 127.511 70.5ZM128.131 70.53C129.511 68.95 130.901 67.37 132.281 65.79C132.181 67.7 132.081 69.62 131.981 71.53C130.601 73.11 129.211 74.69 127.831 76.27C127.931 74.36 128.031 72.44 128.131 70.53ZM126.291 78.14C125.351 76.26 124.411 74.38 123.471 72.5C123.081 74.38 122.701 76.25 122.311 78.13C123.251 80.01 124.191 81.89 125.131 83.76C125.521 81.88 125.901 80.01 126.291 78.13V78.14ZM126.901 78.26C128.511 76.91 130.111 75.55 131.721 74.2C131.331 76.08 130.951 77.95 130.561 79.83C128.951 81.18 127.351 82.54 125.741 83.89C126.131 82.01 126.511 80.14 126.901 78.26ZM124.121 85.56C123.471 83.56 122.821 81.56 122.161 79.57C121.501 81.37 120.841 83.17 120.181 84.97C120.831 86.97 121.481 88.96 122.141 90.96C122.801 89.16 123.461 87.36 124.121 85.57V85.56ZM124.701 85.77C126.491 84.67 128.281 83.57 130.071 82.47C129.411 84.27 128.751 86.07 128.091 87.86C126.301 88.96 124.511 90.06 122.721 91.16C123.381 89.36 124.041 87.56 124.701 85.76V85.77ZM120.991 92.59C120.541 90.54 120.081 88.49 119.631 86.43C118.791 88.15 117.961 89.88 117.131 91.6C117.581 93.65 118.031 95.7 118.491 97.75L120.991 92.58V92.59ZM121.551 92.86C123.441 91.94 125.331 91.02 127.221 90.1C126.391 91.82 125.551 93.55 124.721 95.27C122.831 96.19 120.941 97.11 119.051 98.03C119.881 96.3 120.721 94.58 121.551 92.85V92.86ZM116.991 99.2C116.841 97.11 116.691 95.01 116.541 92.91C115.471 94.5 114.391 96.08 113.321 97.67C113.471 99.76 113.621 101.86 113.771 103.96C114.851 102.37 115.921 100.79 116.991 99.2ZM117.501 99.55C119.501 98.91 121.501 98.28 123.511 97.64C122.441 99.23 121.361 100.81 120.291 102.4C118.291 103.04 116.291 103.67 114.281 104.31C115.351 102.72 116.431 101.14 117.501 99.55ZM112.201 105.23C112.251 103.13 112.301 101.03 112.351 98.93C111.131 100.41 109.911 101.88 108.681 103.36C108.631 105.46 108.581 107.56 108.531 109.66C109.751 108.18 110.971 106.71 112.191 105.23H112.201ZM112.681 105.62C114.731 105.18 116.791 104.74 118.841 104.29C117.621 105.77 116.401 107.24 115.181 108.72C113.131 109.16 111.071 109.6 109.021 110.04C110.241 108.57 111.461 107.09 112.681 105.61V105.62ZM106.651 110.6C107.001 108.53 107.351 106.46 107.701 104.38C106.281 105.67 104.861 106.95 103.441 108.24C103.091 110.31 102.741 112.38 102.391 114.46C103.811 113.17 105.231 111.89 106.651 110.6ZM107.071 111.06C109.171 110.92 111.261 110.77 113.361 110.63C111.941 111.92 110.521 113.2 109.101 114.49C107.001 114.63 104.911 114.78 102.811 114.92C104.231 113.63 105.651 112.35 107.071 111.06ZM100.471 115.24C101.111 113.24 101.761 111.24 102.401 109.24C100.811 110.31 99.2207 111.38 97.6307 112.45C96.9907 114.45 96.3407 116.45 95.7007 118.45C97.2907 117.38 98.8807 116.31 100.471 115.24ZM100.821 115.75C102.911 115.91 105.011 116.07 107.101 116.23C105.511 117.3 103.921 118.37 102.331 119.44C100.241 119.28 98.1407 119.12 96.0507 118.96C97.6407 117.89 99.2307 116.82 100.821 115.75ZM93.7807 119.04C94.6107 117.11 95.4507 115.18 96.2807 113.26C94.5907 114.17 92.9107 115.08 91.2207 115.99C90.3907 117.92 89.5507 119.85 88.7207 121.78C90.4107 120.87 92.0907 119.96 93.7807 119.05V119.04ZM94.0707 119.58C96.1407 119.94 98.2107 120.3 100.281 120.66C98.5907 121.57 96.9107 122.48 95.2207 123.39C93.1507 123.03 91.0807 122.67 89.0107 122.31C90.7007 121.4 92.3807 120.49 94.0707 119.58ZM86.6107 121.94C87.7207 120.15 88.8207 118.37 89.9307 116.58C88.1307 117.23 86.3307 117.89 84.5307 118.54C83.4207 120.32 82.3107 122.11 81.2107 123.89C83.0107 123.24 84.8107 122.58 86.6107 121.93V121.94ZM86.8207 122.52C88.8107 123.18 90.8107 123.84 92.8007 124.5C91.0007 125.15 89.2007 125.81 87.4007 126.46C85.4107 125.8 83.4107 125.14 81.4207 124.48C83.2207 123.83 85.0207 123.17 86.8207 122.52ZM97.0207 14.37L92.8007 9.4L99.1407 10.91L103.361 15.88L97.0107 14.37H97.0207ZM77.4807 4.02C82.6507 4.91 87.5907 6.43 92.2307 8.51L91.6207 9.41C87.1607 7.43 82.4207 5.96 77.4707 5.1V4.02H77.4807ZM77.4807 8.53C84.4307 9.82 90.9507 12.36 96.7807 15.91L96.1807 16.8C90.5307 13.36 84.2207 10.89 77.4807 9.62V8.53ZM77.4807 0C86.1707 1.39 94.2807 4.49 101.481 8.94L100.881 9.83C93.8607 5.5 85.9407 2.47 77.4807 1.09V0.01V0Z" fill="#191A23"/>
<path fill-rule="evenodd" clip-rule="evenodd" d="M28.81 16.45C30.91 16.61 33 16.77 35.1 16.93C33.51 18 31.92 19.07 30.33 20.14C28.24 19.98 26.14 19.82 24.04 19.66C25.63 18.59 27.22 17.52 28.81 16.45ZM28.46 15.94C29.1 13.94 29.75 11.94 30.39 9.94C28.8 11.01 27.21 12.08 25.62 13.15C24.98 15.15 24.33 17.15 23.69 19.15C25.28 18.08 26.87 17.01 28.46 15.94ZM22.92 21.47C25.02 21.33 27.11 21.18 29.21 21.04C27.79 22.33 26.37 23.61 24.95 24.9C22.85 25.04 20.76 25.19 18.66 25.33C20.08 24.04 21.5 22.76 22.92 21.47ZM22.51 21.01C22.86 18.94 23.21 16.87 23.56 14.8C22.14 16.09 20.72 17.37 19.3 18.66C18.95 20.73 18.59 22.8 18.25 24.87C19.67 23.58 21.09 22.3 22.51 21.01ZM17.72 27.18C19.77 26.74 21.83 26.3 23.88 25.86C22.66 27.34 21.43 28.81 20.21 30.29C18.16 30.73 16.1 31.17 14.05 31.61C15.27 30.13 16.5 28.66 17.72 27.19V27.18ZM17.24 26.79C17.29 24.69 17.34 22.59 17.39 20.49C16.17 21.96 14.94 23.44 13.72 24.92C13.67 27.02 13.62 29.12 13.57 31.22C14.79 29.74 16.02 28.27 17.24 26.8V26.79ZM13.27 33.51C15.24 32.78 17.21 32.05 19.18 31.32C18.18 32.95 17.18 34.59 16.19 36.23C14.22 36.96 12.25 37.7 10.28 38.43C11.28 36.79 12.28 35.16 13.27 33.52V33.51ZM12.74 33.19C12.49 31.11 12.24 29.02 11.98 26.93C10.98 28.56 9.99 30.2 8.99 31.84C9.24 33.92 9.49 36.01 9.75 38.1C10.75 36.46 11.74 34.83 12.74 33.19ZM9.71 40.34C11.6 39.42 13.49 38.5 15.38 37.58C14.55 39.31 13.71 41.03 12.88 42.76C10.99 43.68 9.1 44.6 7.21 45.52C8.04 43.79 8.88 42.07 9.71 40.34ZM9.15 40.07C8.69 38.02 8.24 35.97 7.79 33.92C6.96 35.64 6.12 37.37 5.29 39.1C5.74 41.15 6.2 43.2 6.65 45.25C7.48 43.52 8.32 41.8 9.15 40.07ZM7.02 47.59C8.75 46.4 10.48 45.21 12.22 44.02C11.65 45.85 11.08 47.68 10.51 49.51C8.78 50.7 7.05 51.89 5.31 53.08C5.88 51.25 6.45 49.42 7.02 47.59ZM6.43 47.41C5.68 45.45 4.93 43.49 4.17 41.52C3.6 43.35 3.03 45.18 2.46 47.01C3.21 48.97 3.96 50.94 4.72 52.9C5.29 51.07 5.86 49.24 6.43 47.41ZM5.3 55.1C6.91 53.74 8.51 52.39 10.11 51.03C9.73 52.91 9.34 54.78 8.96 56.66C7.35 58.02 5.75 59.37 4.15 60.73C4.53 58.85 4.92 56.98 5.3 55.1ZM4.69 54.98C3.74 53.1 2.8 51.23 1.86 49.35C1.48 51.23 1.09 53.11 0.71 54.98C1.66 56.86 2.6 58.73 3.54 60.61C3.92 58.73 4.31 56.86 4.69 54.98ZM4.56 62.8C5.94 61.22 7.32 59.63 8.7 58.05C8.6 59.96 8.51 61.88 8.42 63.79C7.04 65.37 5.66 66.96 4.28 68.54C4.38 66.62 4.47 64.71 4.57 62.8H4.56ZM3.94 62.77C2.72 61.06 1.51 59.35 0.29 57.63C0.19 59.54 0.1 61.46 0 63.37C1.22 65.08 2.44 66.8 3.65 68.51C3.75 66.6 3.84 64.68 3.94 62.77ZM4.78 70.5C5.99 68.79 7.21 67.07 8.42 65.35C8.52 67.26 8.62 69.18 8.72 71.09C7.51 72.8 6.29 74.52 5.08 76.24C4.98 74.33 4.88 72.41 4.78 70.5ZM4.16 70.53C2.78 68.95 1.39 67.37 0.01 65.79C0.11 67.7 0.21 69.62 0.31 71.53C1.69 73.11 3.08 74.69 4.46 76.27C4.36 74.36 4.26 72.44 4.16 70.53ZM6 78.14C6.94 76.26 7.88 74.38 8.82 72.5C9.21 74.38 9.59 76.25 9.98 78.13C9.04 80.01 8.1 81.89 7.16 83.76C6.78 81.88 6.39 80.01 6 78.13V78.14ZM5.39 78.26C3.78 76.91 2.18 75.55 0.57 74.2C0.95 76.08 1.34 77.95 1.73 79.83C3.34 81.18 4.94 82.54 6.55 83.89C6.16 82.01 5.78 80.14 5.39 78.26ZM8.17 85.56C8.82 83.56 9.47 81.56 10.13 79.57C10.79 81.37 11.45 83.17 12.11 84.97C11.46 86.97 10.81 88.96 10.15 90.96C9.49 89.16 8.83 87.36 8.17 85.57V85.56ZM7.59 85.77C5.8 84.67 4.01 83.57 2.22 82.47C2.88 84.27 3.54 86.07 4.2 87.86C5.99 88.96 7.78 90.06 9.57 91.16C8.91 89.36 8.25 87.56 7.59 85.76V85.77ZM11.3 92.59C11.75 90.54 12.21 88.49 12.66 86.43C13.49 88.15 14.33 89.88 15.16 91.6C14.71 93.65 14.25 95.7 13.8 97.75L11.3 92.58V92.59ZM10.74 92.86C8.85 91.94 6.96 91.02 5.07 90.1C5.9 91.82 6.74 93.55 7.57 95.27C9.46 96.19 11.35 97.11 13.24 98.03C12.4 96.3 11.57 94.58 10.74 92.85V92.86ZM15.3 99.2C15.45 97.11 15.6 95.01 15.76 92.91C16.83 94.5 17.91 96.08 18.98 97.67C18.83 99.76 18.68 101.86 18.53 103.96C17.46 102.37 16.38 100.79 15.31 99.2H15.3ZM14.79 99.55C12.79 98.91 10.79 98.28 8.78 97.64C9.85 99.23 10.93 100.81 12 102.4C14 103.04 16.01 103.67 18.01 104.31C16.94 102.72 15.86 101.14 14.79 99.55ZM20.09 105.23C20.04 103.13 19.99 101.03 19.94 98.93C21.16 100.41 22.38 101.88 23.6 103.36C23.65 105.46 23.7 107.56 23.75 109.66C22.53 108.18 21.31 106.71 20.09 105.23ZM19.61 105.62C17.56 105.18 15.5 104.74 13.45 104.29C14.67 105.77 15.89 107.24 17.11 108.72C19.16 109.16 21.22 109.6 23.27 110.04C22.05 108.57 20.83 107.09 19.61 105.61V105.62ZM25.64 110.6C25.29 108.53 24.94 106.46 24.59 104.38C26.01 105.67 27.43 106.95 28.85 108.24C29.2 110.31 29.55 112.38 29.9 114.46C28.48 113.17 27.06 111.89 25.64 110.6ZM25.22 111.06C23.13 110.92 21.03 110.77 18.93 110.63C20.35 111.92 21.77 113.2 23.19 114.49C25.29 114.63 27.38 114.78 29.48 114.92C28.06 113.63 26.64 112.35 25.22 111.06ZM31.82 115.24C31.18 113.24 30.53 111.24 29.89 109.24C31.48 110.31 33.07 111.38 34.66 112.45C35.3 114.45 35.95 116.45 36.59 118.45C35 117.38 33.41 116.31 31.82 115.24ZM31.48 115.75C29.38 115.91 27.29 116.07 25.19 116.23C26.78 117.3 28.37 118.37 29.96 119.44C32.05 119.28 34.15 119.12 36.24 118.96C34.65 117.89 33.06 116.82 31.47 115.75H31.48ZM38.52 119.04C37.68 117.11 36.85 115.18 36.02 113.26C37.71 114.17 39.39 115.08 41.08 115.99C41.91 117.92 42.75 119.85 43.58 121.78C41.89 120.87 40.21 119.96 38.52 119.05V119.04ZM38.23 119.58C36.16 119.94 34.09 120.3 32.02 120.66C33.7 121.57 35.39 122.48 37.08 123.39C39.15 123.03 41.22 122.67 43.29 122.31C41.6 121.4 39.92 120.49 38.23 119.58ZM45.69 121.94C44.58 120.15 43.47 118.37 42.37 116.58C44.17 117.23 45.97 117.89 47.77 118.54C48.88 120.32 49.99 122.11 51.09 123.89C49.29 123.24 47.49 122.58 45.69 121.93V121.94ZM45.48 122.52C43.49 123.18 41.49 123.84 39.5 124.5C41.3 125.15 43.1 125.81 44.9 126.46C46.89 125.8 48.89 125.14 50.88 124.48C49.08 123.83 47.28 123.17 45.48 122.52ZM35.28 14.37L39.5 9.4L33.16 10.91L28.94 15.88L35.28 14.37ZM54.82 4.02C49.65 4.91 44.71 6.43 40.07 8.51L40.68 9.41C45.14 7.43 49.88 5.96 54.83 5.1V4.02H54.82ZM54.82 8.53C47.86 9.82 41.35 12.36 35.52 15.91L36.12 16.8C41.78 13.36 48.08 10.89 54.82 9.62V8.53ZM54.82 0C46.13 1.39 38.01 4.49 30.82 8.94L31.42 9.83C38.44 5.5 46.35 2.47 54.82 1.09V0.01V0Z" fill="#191A23"/>
<path d="M66.1587 126.28C59.5987 126.28 52.9587 124.84 52.8887 124.83L53.0987 123.85C53.1687 123.86 59.7087 125.28 66.1487 125.28C72.5887 125.28 79.1387 123.87 79.1987 123.85L79.4087 124.83C79.3387 124.84 72.6987 126.28 66.1387 126.28H66.1587Z" fill="#191A23"/>
<path d="M66.1588 122.28C58.6888 122.28 51.1288 120.64 51.0488 120.63L51.2588 119.65C51.3288 119.67 58.7988 121.28 66.1488 121.28C73.4988 121.28 80.9688 119.67 81.0388 119.65L81.2488 120.63C81.1688 120.65 73.6088 122.28 66.1388 122.28H66.1588Z" fill="#191A23"/>
<path d="M66.1588 130.04C57.4588 130.04 48.6388 128.13 48.5488 128.11L48.7588 127.13C48.8488 127.15 57.5588 129.03 66.1488 129.03C74.7388 129.03 83.4588 127.15 83.5388 127.13L83.7488 128.11C83.6588 128.13 74.8488 130.04 66.1388 130.04H66.1588Z" fill="#191A23"/>
<path d="M74.8991 18.16C73.9591 18.25 73.1891 18.29 72.5991 18.32C72.1591 25.29 67.0291 26.01 70.2391 17.01C69.4391 15.89 68.3191 14.27 67.6791 12.85C66.5591 10.41 66.1091 7.55005 66.1091 7.55005C66.1091 7.55005 65.6891 10.41 64.5791 12.85C63.9291 14.27 62.8391 15.89 62.0391 17.01C65.2491 26.01 60.1391 25.29 59.6891 18.32C59.0991 18.29 58.3391 18.24 57.3991 18.16C55.0991 17.95 50.2891 16.7 50.2891 16.7C50.2891 16.7 52.0291 17.67 54.6791 20.6C57.3291 23.53 59.4191 30.7001 59.4191 30.7001H72.8791C72.8791 30.7001 74.9691 23.53 77.6191 20.6C80.2691 17.67 82.0091 16.7 82.0091 16.7C82.0091 16.7 77.1991 17.96 74.8891 18.17L74.8991 18.16ZM55.2691 19.47L58.7691 19.83L58.9791 25.32C58.9791 25.32 57.0191 21.14 55.2691 19.46V19.47ZM66.1191 24.3801L63.7091 17.11L66.1191 13.5L68.5291 17.11L66.1191 24.3801ZM73.3291 25.32L73.5391 19.83L77.0391 19.47C75.2891 21.14 73.3291 25.33 73.3291 25.33V25.32Z" fill="#191A23"/>
<path d="M72.9199 31.55H59.4199V33.59H72.9199V31.55Z" fill="#191A23"/>
<path d="M22.2604 75.1799C21.4404 75.5299 19.8204 76.0999 17.9104 76.0999C15.7704 76.0999 14.0004 75.4499 12.6204 73.8799C11.4004 72.4799 10.6504 70.2299 10.6504 67.6099C10.6704 62.5899 13.5704 58.9099 18.3104 58.9099C19.9504 58.9099 21.2304 59.3299 21.8404 59.6799L21.4004 61.4499C20.6404 61.0499 19.7004 60.7299 18.2704 60.7299C14.8304 60.7299 12.5804 63.2799 12.5804 67.4999C12.5804 71.7199 14.7404 74.2999 18.0404 74.2999C19.2404 74.2999 20.0604 74.0999 20.4804 73.8499V68.8299H17.6004V67.0799H22.2604V75.1799Z" fill="#191A23"/>
<path d="M26.0002 59.0798V69.0498C26.0002 72.8198 27.4102 74.4198 29.3002 74.4198C31.4002 74.4198 32.7402 72.7698 32.7402 69.0498V59.0798H34.5902V68.8998C34.5902 74.0698 32.3002 76.1998 29.2402 76.1998C26.3402 76.1998 24.1602 74.2298 24.1602 68.9998V59.0798H26.0102H26.0002Z" fill="#191A23"/>
<path d="M38.4498 70.6298L36.9798 75.9298H35.0898L39.8998 59.0798H42.0998L46.9298 75.9298H44.9798L43.4698 70.6298H38.4498ZM43.0898 68.9298L41.6998 64.0798C41.3898 62.9798 41.1698 61.9798 40.9698 61.0098H40.9298C40.7198 62.0098 40.4898 63.0298 40.2198 64.0598L38.8298 68.9298H43.0898Z" fill="#191A23"/>
<path d="M48.1309 59.31C49.0509 59.09 50.3809 58.96 51.6409 58.96C53.5909 58.96 54.8509 59.38 55.7309 60.34C56.4409 61.09 56.8409 62.24 56.8409 63.54C56.8409 65.76 55.6609 67.24 54.1709 67.84V67.92C55.2609 68.37 55.9109 69.57 56.2509 71.32C56.7109 73.67 57.0509 75.29 57.3409 75.94H55.4509C55.2209 75.47 54.9109 74.02 54.5109 71.92C54.0909 69.59 53.3309 68.72 51.6809 68.65H49.9609V75.95H48.1309V59.33V59.31ZM49.9609 66.98H51.8309C53.7809 66.98 55.0209 65.7 55.0209 63.78C55.0209 61.61 53.7009 60.66 51.7709 60.63C50.8909 60.63 50.2609 60.73 49.9709 60.83V66.98H49.9609Z" fill="#191A23"/>
<path d="M60.9401 70.6298L59.4701 75.9298H57.5801L62.3901 59.0798H64.5901L69.4201 75.9298H67.4701L65.9601 70.6298H60.9401ZM65.5801 68.9298L64.1901 64.0798C63.8801 62.9798 63.6601 61.9798 63.4601 61.0098H63.4201C63.2101 62.0098 62.9801 63.0298 62.7101 64.0598L61.3201 68.9298H65.5801Z" fill="#191A23"/>
<path d="M70.6211 75.9298V59.0798H72.6111L77.1511 67.5998C78.2011 69.5698 79.0211 71.3498 79.6911 73.0698L79.7311 73.0398C79.5611 70.7898 79.5211 68.7398 79.5211 66.1198V59.0698H81.2411V75.9198H79.3911L74.9011 67.3698C73.9111 65.4998 72.9711 63.5698 72.2511 61.7498L72.1911 61.7698C72.3011 63.8898 72.3411 65.9198 72.3411 68.7198V75.9198H70.6211V75.9298Z" fill="#191A23"/>
<path d="M86.2512 60.9298H81.9512V59.0798H92.4312V60.9298H88.1012V75.9298H86.2512V60.9298Z" fill="#191A23"/>
<path d="M100.441 68.0298H94.9413V74.0998H101.071V75.9198H93.1113V59.0698H100.751V60.8898H94.9313V66.2098H100.431V68.0098L100.441 68.0298Z" fill="#191A23"/>
<path d="M109.891 68.0298H104.391V74.0998H110.521V75.9198H102.561V59.0698H110.201V60.8898H104.381V66.2098H109.881V68.0098L109.891 68.0298Z" fill="#191A23"/>
<path d="M112.01 59.31C113.12 59.11 114.45 58.96 115.89 58.96C118.51 58.96 120.38 59.68 121.62 61.06C122.88 62.44 123.61 64.38 123.61 67.11C123.61 69.84 122.9 72.11 121.57 73.66C120.25 75.24 118.06 76.08 115.31 76.08C114.01 76.08 112.92 76 111.99 75.88V59.31H112.01ZM113.84 74.21C114.3 74.31 114.97 74.33 115.69 74.33C119.59 74.33 121.72 71.73 121.72 67.18C121.74 63.21 119.85 60.68 115.99 60.68C115.05 60.68 114.33 60.78 113.85 60.9V74.2L113.84 74.21Z" fill="#191A23"/>
<path d="M33.4395 43.7398H30.7695V42.7798H37.2595V43.7398H34.5795V51.5398H33.4395V43.7398Z" fill="#191A23"/>
<path d="M45.3694 47.0699C45.3694 50.0899 43.5394 51.6899 41.2994 51.6899C39.0594 51.6899 37.3594 49.8999 37.3594 47.2399C37.3594 44.4599 39.0894 42.6399 41.4294 42.6399C43.7694 42.6399 45.3694 44.4699 45.3694 47.0699ZM38.5694 47.2099C38.5694 49.0799 39.5794 50.7599 41.3594 50.7599C43.1394 50.7599 44.1694 49.1099 44.1694 47.1199C44.1694 45.3799 43.2594 43.5599 41.3794 43.5599C39.4994 43.5599 38.5694 45.2899 38.5694 47.2099Z" fill="#191A23"/>
<path d="M46.8398 42.89C47.3898 42.8 48.0998 42.72 49.0098 42.72C50.1298 42.72 50.9498 42.98 51.4698 43.45C51.9498 43.87 52.2398 44.5 52.2398 45.28C52.2398 46.06 52.0098 46.7 51.5598 47.15C50.9598 47.79 49.9898 48.11 48.8798 48.11C48.5398 48.11 48.2298 48.1 47.9698 48.03V51.54H46.8398V42.88V42.89ZM47.9698 47.11C48.2198 47.18 48.5298 47.2 48.9098 47.2C50.2798 47.2 51.1098 46.54 51.1098 45.33C51.1098 44.12 50.2898 43.61 49.0398 43.61C48.5498 43.61 48.1698 43.65 47.9698 43.7V47.11Z" fill="#191A23"/>
<path d="M63.74 52.8299C62.56 52.5199 61.4 52.1699 60.39 51.8199C60.21 51.7599 60.03 51.6899 59.86 51.6899C57.78 51.6099 56 50.0799 56 47.2599C56 44.4399 57.72 42.6399 60.08 42.6399C62.44 42.6399 64.01 44.4899 64.01 47.0699C64.01 49.3199 62.97 50.7599 61.51 51.2699V51.3199C62.38 51.5399 63.33 51.7499 64.07 51.8799L63.74 52.8299ZM62.8 47.1199C62.8 45.3599 61.89 43.5599 60.03 43.5599C58.17 43.5599 57.18 45.3299 57.2 47.2299C57.19 49.0899 58.21 50.7699 59.98 50.7699C61.75 50.7699 62.8 49.1299 62.8 47.1299V47.1199Z" fill="#191A23"/>
<path d="M66.5994 42.7798V47.9698C66.5994 49.9298 67.4695 50.7598 68.6395 50.7598C69.9395 50.7598 70.7695 49.8998 70.7695 47.9698V42.7798H71.9095V47.8898C71.9095 50.5798 70.4895 51.6898 68.5895 51.6898C66.7995 51.6898 65.4395 50.6598 65.4395 47.9498V42.7898H66.5795L66.5994 42.7798Z" fill="#191A23"/>
<path d="M74.8593 48.7898L73.9493 51.5498H72.7793L75.7593 42.7898H77.1293L80.1193 51.5498H78.9093L77.9693 48.7898H74.8593ZM77.7293 47.9098L76.8693 45.3898C76.6793 44.8198 76.5393 44.2998 76.4093 43.7898H76.3793C76.2493 44.3098 76.1093 44.8398 75.9393 45.3798L75.0793 47.9198H77.7193L77.7293 47.9098Z" fill="#191A23"/>
<path d="M81.3987 42.7798H82.5287V50.5898H86.2687V51.5398H81.3887V42.7798H81.3987Z" fill="#191A23"/>
<path d="M88.6593 42.7798V51.5398H87.5293V42.7798H88.6593Z" fill="#191A23"/>
<path d="M92.2989 43.7398H89.6289V42.7798H96.1189V43.7398H93.4389V51.5398H92.2989V43.7398Z" fill="#191A23"/>
<path d="M99.4087 51.5398V47.8198L96.6387 42.7798H97.9287L99.1687 45.1998C99.5087 45.8598 99.7687 46.3998 100.039 47.0098H100.069C100.319 46.4398 100.619 45.8698 100.949 45.1998L102.209 42.7798H103.499L100.559 47.8098V51.5398H99.4187H99.4087Z" fill="#191A23"/>
<path d="M41.5589 104.37C41.8689 104.56 42.3289 104.72 42.8089 104.72C43.5189 104.72 43.9389 104.34 43.9389 103.8C43.9389 103.3 43.6489 103.01 42.9189 102.73C42.0389 102.42 41.4989 101.96 41.4989 101.2C41.4989 100.36 42.1989 99.74 43.2389 99.74C43.7889 99.74 44.1889 99.87 44.4289 100L44.2389 100.57C44.0589 100.47 43.6989 100.31 43.2189 100.31C42.4789 100.31 42.1989 100.75 42.1989 101.12C42.1989 101.62 42.5289 101.87 43.2689 102.16C44.1789 102.51 44.6489 102.95 44.6489 103.74C44.6489 104.57 44.0289 105.29 42.7589 105.29C42.2389 105.29 41.6689 105.14 41.3789 104.95L41.5589 104.37Z" fill="#191A23"/>
<path d="M47.8895 99.8301V105.22H47.1895V99.8301H47.8895Z" fill="#191A23"/>
<path d="M50.709 105.22V99.8301H51.469L53.199 102.56C53.599 103.19 53.909 103.76 54.169 104.31H54.189C54.129 103.58 54.109 102.93 54.109 102.09V99.8401H54.769V105.23H54.069L52.359 102.5C51.979 101.9 51.619 101.28 51.349 100.7H51.329C51.369 101.39 51.389 102.04 51.389 102.93V105.23H50.729L50.709 105.22Z" fill="#191A23"/>
<path d="M61.3398 105.05C61.0798 105.18 60.5698 105.31 59.9198 105.31C58.3998 105.31 57.2598 104.35 57.2598 102.58C57.2598 100.81 58.3998 99.75 60.0698 99.75C60.7398 99.75 61.1598 99.89 61.3498 99.99L61.1798 100.56C60.9198 100.43 60.5398 100.34 60.0898 100.34C58.8298 100.34 57.9898 101.15 57.9898 102.56C57.9898 103.88 58.7498 104.73 60.0598 104.73C60.4798 104.73 60.9198 104.64 61.1898 104.51L61.3298 105.06L61.3398 105.05Z" fill="#191A23"/>
<path d="M66.5986 102.69H64.5086V104.63H66.8386V105.21H63.8086V99.8201H66.7186V100.4H64.5086V102.1H66.5986V102.68V102.69Z" fill="#191A23"/>
<path d="M73.9194 100.68H73.8994L72.9994 101.17L72.8594 100.63L73.9894 100.02H74.5894V105.22H73.9094V100.68H73.9194Z" fill="#191A23"/>
<path d="M78.5081 104.72C78.6581 104.74 78.8381 104.72 79.0781 104.7C79.4881 104.64 79.8681 104.48 80.1681 104.2C80.5081 103.89 80.7581 103.43 80.8581 102.82H80.8381C80.5481 103.17 80.1381 103.38 79.6181 103.38C78.6781 103.38 78.0781 102.68 78.0781 101.79C78.0781 100.81 78.7881 99.9399 79.8481 99.9399C80.9081 99.9399 81.5681 100.8 81.5681 102.13C81.5681 103.27 81.1881 104.07 80.6681 104.57C80.2681 104.96 79.7181 105.2 79.1581 105.27C78.8981 105.31 78.6781 105.32 78.5081 105.31V104.73V104.72ZM78.7681 101.73C78.7681 102.38 79.1581 102.83 79.7681 102.83C80.2381 102.83 80.6081 102.6 80.7881 102.29C80.8281 102.23 80.8481 102.15 80.8481 102.03C80.8481 101.14 80.5181 100.46 79.7881 100.46C79.1881 100.46 78.7681 100.99 78.7681 101.72V101.73Z" fill="#191A23"/>
<path d="M83.7383 103.9C83.7383 103.24 84.1283 102.78 84.7683 102.51V102.49C84.1883 102.22 83.9383 101.77 83.9383 101.32C83.9383 100.5 84.6383 99.9399 85.5483 99.9399C86.5583 99.9399 87.0583 100.57 87.0583 101.22C87.0583 101.66 86.8383 102.13 86.1983 102.43V102.45C86.8483 102.71 87.2483 103.16 87.2483 103.79C87.2483 104.69 86.4683 105.3 85.4783 105.3C84.3883 105.3 83.7383 104.65 83.7383 103.89V103.9ZM86.5383 103.87C86.5383 103.24 86.0983 102.93 85.3983 102.73C84.7883 102.91 84.4583 103.31 84.4583 103.8C84.4383 104.33 84.8383 104.79 85.4983 104.79C86.1583 104.79 86.5383 104.4 86.5383 103.86V103.87ZM84.5983 101.27C84.5983 101.79 84.9883 102.07 85.5883 102.23C86.0383 102.08 86.3783 101.76 86.3783 101.29C86.3783 100.87 86.1283 100.44 85.4983 100.44C84.9183 100.44 84.5983 100.82 84.5983 101.27Z" fill="#191A23"/>
<path d="M92.6085 100.62H90.6285L90.4285 101.95C90.5485 101.93 90.6585 101.92 90.8485 101.92C91.2485 101.92 91.6485 102.01 91.9685 102.2C92.3785 102.43 92.7085 102.88 92.7085 103.53C92.7085 104.55 91.8985 105.31 90.7685 105.31C90.1985 105.31 89.7185 105.15 89.4785 104.99L89.6585 104.45C89.8785 104.58 90.2985 104.74 90.7685 104.74C91.4285 104.74 91.9985 104.31 91.9985 103.61C91.9985 102.94 91.5385 102.46 90.4985 102.46C90.1985 102.46 89.9685 102.49 89.7785 102.52L90.1185 100.03H92.6085V100.62Z" fill="#191A23"/>
<path d="M28.8398 33.3899C28.8398 33.3899 29.2398 33.3599 29.9298 33.2899C30.6198 33.2199 31.6098 33.1399 32.7998 33.0699C33.9898 32.9899 35.3698 32.8999 36.8498 32.8099C38.3298 32.6999 39.9098 32.6499 41.4898 32.5899C44.6498 32.4599 47.8098 32.3399 50.1898 32.2499C52.5598 32.1999 54.1398 32.1699 54.1398 32.1699V33.6099L28.8398 33.5599V33.3999V33.3899Z" fill="#191A23"/>
<path d="M78.0605 32.1599C78.0605 32.1599 79.6405 32.1899 82.0105 32.2399C84.3805 32.3299 87.5405 32.4499 90.7105 32.5799C92.2905 32.6499 93.8705 32.6799 95.3505 32.7899C96.8305 32.8899 98.2205 32.9799 99.4005 33.0499C100.591 33.1299 101.571 33.1899 102.271 33.2599C102.961 33.3199 103.361 33.3499 103.361 33.3499V33.5499L78.0605 33.5999V32.1499V32.1599Z" fill="#191A23"/>
<path d="M84.2893 80.3201L86.2293 84.2401L90.5593 84.8701L87.4193 87.9201L88.1593 92.2401L84.2893 90.2001L80.4193 92.2401L81.1593 87.9201L78.0293 84.8701L82.3593 84.2401L84.2893 80.3201Z" fill="#191A23"/>
<path d="M102.44 80.3201L104.37 84.2401L108.7 84.8701L105.57 87.9201L106.31 92.2401L102.44 90.2001L98.5599 92.2401L99.2999 87.9201L96.1699 84.8701L100.5 84.2401L102.44 80.3201Z" fill="#191A23"/>
<path d="M66.1489 80.3201L68.0789 84.2401L72.4089 84.8701L69.2789 87.9201L70.0189 92.2401L66.1489 90.2001L62.2789 92.2401L63.0189 87.9201L59.8789 84.8701L64.2089 84.2401L66.1489 80.3201Z" fill="#191A23"/>
<path d="M48.0102 80.3201L49.9402 84.2401L54.2702 84.8701L51.1402 87.9201L51.8802 92.2401L48.0102 90.2001L44.1302 92.2401L44.8702 87.9201L41.7402 84.8701L46.0702 84.2401L48.0102 80.3201Z" fill="#191A23"/>
<path d="M29.8596 80.3201L31.7996 84.2401L36.1296 84.8701L32.9896 87.9201L33.7296 92.2401L29.8596 90.2001L25.9896 92.2401L26.7296 87.9201L23.5996 84.8701L27.9296 84.2401L29.8596 80.3201Z" fill="#191A23"/>
</svg>
