<svg width="359" height="395" viewBox="0 0 359 395" fill="none" xmlns="http://www.w3.org/2000/svg">
<path d="M190 161.5C143.356 161.5 101.142 165.471 70.6016 171.887C55.3275 175.095 42.9997 178.91 34.5029 183.13C30.2539 185.24 26.9887 187.439 24.792 189.694C22.597 191.948 21.5 194.222 21.5 196.5C21.5 198.778 22.597 201.052 24.792 203.306C26.9887 205.561 30.2539 207.76 34.5029 209.87C42.9997 214.09 55.3275 217.905 70.6016 221.113C101.142 227.529 143.356 231.5 190 231.5C236.644 231.5 278.858 227.529 309.398 221.113C324.673 217.905 337 214.09 345.497 209.87C349.746 207.76 353.011 205.561 355.208 203.306C357.403 201.052 358.5 198.778 358.5 196.5C358.5 194.222 357.403 191.948 355.208 189.694C353.011 187.439 349.746 185.24 345.497 183.13C337 178.91 324.673 175.095 309.398 171.887C278.858 165.471 236.644 161.5 190 161.5Z" stroke="#B9FF66"/>
<path d="M190 188.5C143.356 188.5 101.142 192.471 70.6016 198.887C55.3275 202.095 42.9997 205.91 34.5029 210.13C30.2539 212.24 26.9887 214.439 24.792 216.694C22.597 218.948 21.5 221.222 21.5 223.5C21.5 225.778 22.597 228.052 24.792 230.306C26.9887 232.561 30.2539 234.76 34.5029 236.87C42.9997 241.09 55.3275 244.905 70.6016 248.113C101.142 254.529 143.356 258.5 190 258.5C236.644 258.5 278.858 254.529 309.398 248.113C324.673 244.905 337 241.09 345.497 236.87C349.746 234.76 353.011 232.561 355.208 230.306C357.403 228.052 358.5 225.778 358.5 223.5C358.5 221.222 357.403 218.948 355.208 216.694C353.011 214.439 349.746 212.24 345.497 210.13C337 205.91 324.673 202.095 309.398 198.887C278.858 192.471 236.644 188.5 190 188.5Z" stroke="#B9FF66"/>
<path d="M190 213.5C143.356 213.5 101.142 217.471 70.6016 223.887C55.3275 227.095 42.9997 230.91 34.5029 235.13C30.2539 237.24 26.9887 239.439 24.792 241.694C22.597 243.948 21.5 246.222 21.5 248.5C21.5 250.778 22.597 253.052 24.792 255.306C26.9887 257.561 30.2539 259.76 34.5029 261.87C42.9997 266.09 55.3275 269.905 70.6016 273.113C101.142 279.529 143.356 283.5 190 283.5C236.644 283.5 278.858 279.529 309.398 273.113C324.673 269.905 337 266.09 345.497 261.87C349.746 259.76 353.011 257.561 355.208 255.306C357.403 253.052 358.5 250.778 358.5 248.5C358.5 246.222 357.403 243.948 355.208 241.694C353.011 239.439 349.746 237.24 345.497 235.13C337 230.91 324.673 227.095 309.398 223.887C278.858 217.471 236.644 213.5 190 213.5Z" stroke="#B9FF66"/>
<path d="M118.5 0L106.165 66.5381L57.0764 19.9577L86.2077 81.0383L19.1146 72.2077L78.5845 104.5L19.1146 136.792L86.2077 127.962L57.0764 189.042L106.165 142.462L118.5 209L130.835 142.462L179.924 189.042L150.792 127.962L217.885 136.792L158.415 104.5L217.885 72.2077L150.792 81.0383L179.924 19.9577L130.835 66.5381L118.5 0Z" fill="#D9D9D9"/>
<path d="M82 177L64.2108 222.06L17.8898 207.874L42.028 249.877L2.05591 277.247L49.9449 284.563L46.4215 332.879L82 300L117.578 332.879L114.055 284.563L161.944 277.247L121.972 249.877L146.11 207.874L99.7892 222.06L82 177Z" fill="white"/>
<path d="M308 95L299.539 116.431L277.509 109.684L288.989 129.661L269.978 142.678L292.754 146.158L291.079 169.138L308 153.5L324.921 169.138L323.246 146.158L346.022 142.678L327.011 129.661L338.491 109.684L316.461 116.431L308 95Z" fill="white"/>
<path d="M246.806 306.102L223.866 264L200.742 306.102L158.731 329.134L200.742 352.166L223.866 394.269L246.806 352.166L289 329.134L246.806 306.102Z" fill="#B9FF66"/>
<circle cx="62.5" cy="62.5" r="62" transform="matrix(-1 0 0 1 269 124)" fill="#B9FF66" stroke="black"/>
<ellipse cx="10" cy="20" rx="10" ry="20" transform="matrix(-1 0 0 1 237 153)" fill="white"/>
<ellipse cx="10" cy="20" rx="10" ry="20" transform="matrix(-1 0 0 1 196 153)" fill="white"/>
</svg>
