<svg width="148" height="112" viewBox="0 0 148 112" fill="none" xmlns="http://www.w3.org/2000/svg">
<path d="M132.19 53.9355C132.19 52.7955 132.15 51.6555 132.08 50.5355C134.88 49.1955 143.04 44.4455 142.21 34.8655C142.21 34.8655 133.6 37.1955 131.51 45.3355C130.9 41.4855 129.88 37.7755 128.51 34.2155C128.99 35.2855 129.61 36.3755 130.44 37.4955C130.44 37.4955 138.6 27.9155 131.77 18.3255C131.77 18.3255 125.09 24.7355 128.1 33.1855C126.58 29.4855 124.66 25.9655 122.4 22.6855C123.96 20.3655 127.22 14.1455 122.78 7.90552C122.78 7.90552 118.04 12.4655 119.36 18.6655C118.43 17.5455 117.47 16.4555 116.45 15.4055C116.62 15.3555 116.78 15.3055 116.95 15.2455C116.95 15.2455 115.14 12.9155 112.01 11.2455C110.67 10.1055 109.27 9.02552 107.83 8.00552C109.12 8.95552 110.37 9.96552 111.57 11.0155C108.93 9.71552 105.43 8.93552 101.33 10.3155C101.33 10.3155 106.41 18.4455 116.16 15.4955C117.38 16.8255 118.52 18.2055 119.6 19.6455C120 20.9255 120.66 22.2555 121.68 23.6355C121.68 23.6355 121.82 23.4655 122.05 23.1555C125.27 28.1755 127.67 33.7155 129.09 39.6155C126.95 36.3855 122.9 32.3855 115.99 32.3555C115.99 32.3555 118.16 43.0655 129.9 43.6355C130.35 46.4155 130.58 49.2655 130.58 52.1655C130.58 59.1955 129.2 65.9155 126.71 72.1155C126.8 67.4655 125.51 60.5955 118.21 56.1755C118.21 56.1755 113.14 68.5055 124.83 76.3055C122.6 80.7155 119.78 84.8055 116.46 88.4855C118.38 83.8455 120.54 74.8655 113.26 67.0255C113.26 67.0255 103.65 78.9955 114.19 90.8555C103.9 101.046 89.6001 107.536 73.6901 108.026C57.7901 107.536 43.4901 101.046 33.2001 90.8655C43.7501 78.9955 34.1301 67.0255 34.1301 67.0255C26.8401 74.8755 29.0201 83.8755 30.9401 88.5055C27.6201 84.8255 24.7901 80.7355 22.5601 76.3155C34.2601 68.5255 29.1801 56.1855 29.1801 56.1855C21.8701 60.6155 20.5901 67.5055 20.6901 72.1555C18.1901 65.9555 16.8101 59.2255 16.8101 52.1755C16.8101 49.2755 17.0501 46.4255 17.5001 43.6455C29.2501 43.0855 31.4201 32.3655 31.4201 32.3655C24.4901 32.3955 20.4401 36.4155 18.3001 39.6555C19.7201 33.7455 22.1301 28.1955 25.3601 23.1655C25.5901 23.4755 25.7401 23.6555 25.7401 23.6555C26.7601 22.2755 27.4301 20.9255 27.8201 19.6455C28.9001 18.2155 30.0401 16.8455 31.2501 15.5155C41.0101 18.4755 46.0901 10.3355 46.0901 10.3355C41.9801 8.95552 38.4701 9.73552 35.8201 11.0455C37.0301 9.98552 38.2801 8.98552 39.5801 8.02552C38.1301 9.04552 36.7301 10.1355 35.3801 11.2755C32.2701 12.9455 30.4701 15.2555 30.4701 15.2555C30.6401 15.3155 30.8001 15.3655 30.9701 15.4155C29.9701 16.4655 29.0001 17.5455 28.0801 18.6555C29.3901 12.4555 24.6601 7.91552 24.6601 7.91552C20.2301 14.1355 23.4801 20.3555 25.0301 22.6855C22.8001 25.9155 20.9101 29.3655 19.4101 33.0055C22.2501 24.6555 15.6801 18.3355 15.6801 18.3355C8.84014 27.9255 17.0001 37.5055 17.0001 37.5055C17.7801 36.4455 18.3901 35.4055 18.8501 34.3855C17.5101 37.8855 16.5101 41.5355 15.9101 45.3155C13.8001 37.1855 5.21014 34.8655 5.21014 34.8655C4.39014 44.4355 12.5201 49.1855 15.3301 50.5255C15.2601 51.6555 15.2201 52.7855 15.2201 53.9355C15.2201 84.4355 40.3601 109.346 72.0101 110.996V111.086C72.5801 111.086 73.1301 111.066 73.6901 111.046C74.2501 111.056 74.8001 111.086 75.3601 111.086V110.996C107.02 109.346 132.16 84.4355 132.16 53.9355H132.19Z" fill="#191A23"/>
<path d="M7.15039 82.8354C14.2604 96.0654 30.6304 93.2754 30.6304 93.2754C23.0404 78.5254 7.15039 82.8354 7.15039 82.8354Z" fill="#191A23"/>
<mask id="mask0_1028_590" style="mask-type:luminance" maskUnits="userSpaceOnUse" x="7" y="82" width="24" height="12">
<path d="M7.15039 82.8354C14.2604 96.0654 30.6304 93.2754 30.6304 93.2754C23.0404 78.5254 7.15039 82.8354 7.15039 82.8354Z" fill="white"/>
</mask>
<g mask="url(#mask0_1028_590)">
<path d="M30.6304 93.4055H7.15039V94.3055H30.6304V93.4055Z" fill="#191A23"/>
<path d="M30.6304 92.4954H7.15039V93.4054H30.6304V92.4954Z" fill="#191A23"/>
<path d="M30.6304 91.5955H7.15039V92.4955H30.6304V91.5955Z" fill="#191A23"/>
<path d="M30.6304 90.6853H7.15039V91.5953H30.6304V90.6853Z" fill="#191A23"/>
<path d="M30.6304 89.7854H7.15039V90.6854H30.6304V89.7854Z" fill="#191A23"/>
<path d="M30.6304 88.8755H7.15039V89.7755H30.6304V88.8755Z" fill="#191A23"/>
<path d="M30.6304 87.9753H7.15039V88.8853H30.6304V87.9753Z" fill="#191A23"/>
<path d="M30.6304 87.0654H7.15039V87.9654H30.6304V87.0654Z" fill="#191A23"/>
<path d="M30.6304 86.1655H7.15039V87.0755H30.6304V86.1655Z" fill="#191A23"/>
<path d="M30.6304 85.2554H7.15039V86.1554H30.6304V85.2554Z" fill="#191A23"/>
<path d="M30.6304 84.3555H7.15039V85.2555H30.6304V84.3555Z" fill="#191A23"/>
<path d="M30.6304 83.4453H7.15039V84.3553H30.6304V83.4453Z" fill="#191A23"/>
<path d="M30.6304 82.5454H7.15039V83.4554H30.6304V82.5454Z" fill="#191A23"/>
<path d="M30.6304 81.6355H7.15039V82.5355H30.6304V81.6355Z" fill="#191A23"/>
</g>
<path d="M20.44 79.6055C13.84 66.7655 0 70.5155 0 70.5155C6.19 82.0255 20.44 79.6055 20.44 79.6055Z" fill="#191A23"/>
<mask id="mask1_1028_590" style="mask-type:luminance" maskUnits="userSpaceOnUse" x="0" y="70" width="21" height="10">
<path d="M20.44 79.6055C13.84 66.7655 0 70.5155 0 70.5155C6.19 82.0255 20.44 79.6055 20.44 79.6055Z" fill="white"/>
</mask>
<g mask="url(#mask1_1028_590)">
<path d="M20.44 79.7053H0V80.4953H20.44V79.7053Z" fill="#191A23"/>
<path d="M20.44 78.9253H0V79.7153H20.44V78.9253Z" fill="#191A23"/>
<path d="M20.44 78.1355H0V78.9255H20.44V78.1355Z" fill="#191A23"/>
<path d="M20.44 77.3455H0V78.1355H20.44V77.3455Z" fill="#191A23"/>
<path d="M20.44 76.5554H0V77.3454H20.44V76.5554Z" fill="#191A23"/>
<path d="M20.44 75.7754H0V76.5654H20.44V75.7754Z" fill="#191A23"/>
<path d="M20.44 74.9854H0V75.7754H20.44V74.9854Z" fill="#191A23"/>
<path d="M20.44 74.1953H0V74.9853H20.44V74.1953Z" fill="#191A23"/>
<path d="M20.44 73.4053H0V74.1953H20.44V73.4053Z" fill="#191A23"/>
<path d="M20.44 72.6255H0V73.4155H20.44V72.6255Z" fill="#191A23"/>
<path d="M20.44 71.8354H0V72.6255H20.44V71.8354Z" fill="#191A23"/>
<path d="M20.44 71.0454H0V71.8354H20.44V71.0454Z" fill="#191A23"/>
<path d="M20.44 70.2554H0V71.0454H20.44V70.2554Z" fill="#191A23"/>
<path d="M20.44 69.4753H0V70.2653H20.44V69.4753Z" fill="#191A23"/>
</g>
<path d="M16.1994 67.3054C16.0494 53.0254 1.85938 50.7454 1.85938 50.7454C2.23937 63.6654 16.1994 67.3054 16.1994 67.3054Z" fill="#191A23"/>
<mask id="mask2_1028_590" style="mask-type:luminance" maskUnits="userSpaceOnUse" x="1" y="50" width="16" height="18">
<path d="M16.1994 67.3054C16.0494 53.0254 1.85938 50.7454 1.85938 50.7454C2.23937 63.6654 16.1994 67.3054 16.1994 67.3054Z" fill="white"/>
</mask>
<g mask="url(#mask2_1028_590)">
<path d="M16.2091 67.1252H1.86914V67.3052H16.2091V67.1252Z" fill="#191A23"/>
<path d="M16.2091 65.7954H1.86914V67.1254H16.2091V65.7954Z" fill="#191A23"/>
<path d="M16.2091 64.4653H1.86914V65.7953H16.2091V64.4653Z" fill="#191A23"/>
<path d="M16.2091 63.1353H1.86914V64.4652H16.2091V63.1353Z" fill="#191A23"/>
<path d="M16.2091 61.8054H1.86914V63.1354H16.2091V61.8054Z" fill="#191A23"/>
<path d="M16.2091 60.4753H1.86914V61.8053H16.2091V60.4753Z" fill="#191A23"/>
<path d="M16.2091 59.1453H1.86914V60.4753H16.2091V59.1453Z" fill="#191A23"/>
<path d="M16.2091 57.8154H1.86914V59.1454H16.2091V57.8154Z" fill="#191A23"/>
<path d="M16.2091 56.4854H1.86914V57.8153H16.2091V56.4854Z" fill="#191A23"/>
<path d="M16.2091 55.1653H1.86914V56.4953H16.2091V55.1653Z" fill="#191A23"/>
<path d="M16.2091 53.8354H1.86914V55.1655H16.2091V53.8354Z" fill="#191A23"/>
<path d="M16.2091 52.5054H1.86914V53.8354H16.2091V52.5054Z" fill="#191A23"/>
<path d="M16.2091 51.1753H1.86914V52.5053H16.2091V51.1753Z" fill="#191A23"/>
<path d="M16.2091 50.7454H1.86914V51.1754H16.2091V50.7454Z" fill="#191A23"/>
</g>
<path d="M39.2702 0.29541C31.4402 2.37541 31.2402 10.5954 31.2402 10.5954C39.9402 8.44541 39.2702 0.29541 39.2702 0.29541Z" fill="#191A23"/>
<mask id="mask3_1028_590" style="mask-type:luminance" maskUnits="userSpaceOnUse" x="31" y="0" width="9" height="11">
<path d="M39.2702 0.29541C31.4402 2.37541 31.2402 10.5954 31.2402 10.5954C39.9402 8.44541 39.2702 0.29541 39.2702 0.29541Z" fill="white"/>
</mask>
<g mask="url(#mask3_1028_590)">
<path d="M39.9305 10.4753H31.2305V10.5853H39.9305V10.4753Z" fill="#191A23"/>
<path d="M39.9305 9.64551H31.2305V10.4755H39.9305V9.64551Z" fill="#191A23"/>
<path d="M39.9305 8.82544H31.2305V9.65544H39.9305V8.82544Z" fill="#191A23"/>
<path d="M39.9305 7.99536H31.2305V8.82536H39.9305V7.99536Z" fill="#191A23"/>
<path d="M39.9305 7.16553H31.2305V7.99553H39.9305V7.16553Z" fill="#191A23"/>
<path d="M39.9305 6.34546H31.2305V7.17546H39.9305V6.34546Z" fill="#191A23"/>
<path d="M39.9305 5.51538H31.2305V6.34538H39.9305V5.51538Z" fill="#191A23"/>
<path d="M39.9305 4.6853H31.2305V5.5153H39.9305V4.6853Z" fill="#191A23"/>
<path d="M39.9305 3.86548H31.2305V4.69548H39.9305V3.86548Z" fill="#191A23"/>
<path d="M39.9305 3.0354H31.2305V3.8654H39.9305V3.0354Z" fill="#191A23"/>
<path d="M39.9305 2.21533H31.2305V3.04533H39.9305V2.21533Z" fill="#191A23"/>
<path d="M39.9305 1.3855H31.2305V2.2155H39.9305V1.3855Z" fill="#191A23"/>
<path d="M39.9305 0.55542H31.2305V1.38542H39.9305V0.55542Z" fill="#191A23"/>
<path d="M39.9305 0.29541H31.2305V0.55541H39.9305V0.29541Z" fill="#191A23"/>
</g>
<path d="M17.4806 59.6455C30.7506 55.8755 29.2606 43.3555 29.2606 43.3555C17.3106 46.9655 17.4806 59.6455 17.4806 59.6455Z" fill="#191A23"/>
<mask id="mask4_1028_590" style="mask-type:luminance" maskUnits="userSpaceOnUse" x="17" y="43" width="13" height="17">
<path d="M17.4806 59.6455C30.7506 55.8755 29.2606 43.3555 29.2606 43.3555C17.3106 46.9655 17.4806 59.6455 17.4806 59.6455Z" fill="white"/>
</mask>
<g mask="url(#mask4_1028_590)">
<path d="M30.7605 59.4656H17.3105V59.6356H30.7605V59.4656Z" fill="#191A23"/>
<path d="M30.7605 58.1555H17.3105V59.4655H30.7605V58.1555Z" fill="#191A23"/>
<path d="M30.7605 56.8555H17.3105V58.1655H30.7605V56.8555Z" fill="#191A23"/>
<path d="M30.7605 55.5454H17.3105V56.8554H30.7605V55.5454Z" fill="#191A23"/>
<path d="M30.7605 54.2354H17.3105V55.5453H30.7605V54.2354Z" fill="#191A23"/>
<path d="M30.7605 52.9255H17.3105V54.2355H30.7605V52.9255Z" fill="#191A23"/>
<path d="M30.7605 51.6155H17.3105V52.9255H30.7605V51.6155Z" fill="#191A23"/>
<path d="M30.7605 50.3154H17.3105V51.6254H30.7605V50.3154Z" fill="#191A23"/>
<path d="M30.7605 49.0054H17.3105V50.3154H30.7605V49.0054Z" fill="#191A23"/>
<path d="M30.7605 47.6956H17.3105V49.0056H30.7605V47.6956Z" fill="#191A23"/>
<path d="M30.7605 46.3855H17.3105V47.6955H30.7605V46.3855Z" fill="#191A23"/>
<path d="M30.7605 45.0854H17.3105V46.3955H30.7605V45.0854Z" fill="#191A23"/>
<path d="M30.7605 43.7754H17.3105V45.0854H30.7605V43.7754Z" fill="#191A23"/>
<path d="M30.7605 43.3555H17.3105V43.7755H30.7605V43.3555Z" fill="#191A23"/>
</g>
<path d="M22.2891 29.7654C34.5291 31.6054 38.4091 20.9554 38.4091 20.9554C27.2991 19.4754 22.2891 29.7654 22.2891 29.7654Z" fill="#191A23"/>
<mask id="mask5_1028_590" style="mask-type:luminance" maskUnits="userSpaceOnUse" x="22" y="20" width="17" height="10">
<path d="M22.2891 29.7654C34.5291 31.6054 38.4091 20.9554 38.4091 20.9554C27.2991 19.4754 22.2891 29.7654 22.2891 29.7654Z" fill="white"/>
</mask>
<g mask="url(#mask5_1028_590)">
<path d="M38.4091 29.8853H22.2891V30.6253H38.4091V29.8853Z" fill="#191A23"/>
<path d="M38.4091 29.1453H22.2891V29.8853H38.4091V29.1453Z" fill="#191A23"/>
<path d="M38.4091 28.4153H22.2891V29.1553H38.4091V28.4153Z" fill="#191A23"/>
<path d="M38.4091 27.6753H22.2891V28.4153H38.4091V27.6753Z" fill="#191A23"/>
<path d="M38.4091 26.9453H22.2891V27.6853H38.4091V26.9453Z" fill="#191A23"/>
<path d="M38.4091 26.2053H22.2891V26.9453H38.4091V26.2053Z" fill="#191A23"/>
<path d="M38.4091 25.4653H22.2891V26.2053H38.4091V25.4653Z" fill="#191A23"/>
<path d="M38.4091 24.7354H22.2891V25.4754H38.4091V24.7354Z" fill="#191A23"/>
<path d="M38.4091 23.9954H22.2891V24.7354H38.4091V23.9954Z" fill="#191A23"/>
<path d="M38.4091 23.2654H22.2891V24.0054H38.4091V23.2654Z" fill="#191A23"/>
<path d="M38.4091 22.5254H22.2891V23.2654H38.4091V22.5254Z" fill="#191A23"/>
<path d="M38.4091 21.7854H22.2891V22.5254H38.4091V21.7854Z" fill="#191A23"/>
<path d="M38.4091 21.0554H22.2891V21.7954H38.4091V21.0554Z" fill="#191A23"/>
<path d="M38.4091 20.3154H22.2891V21.0554H38.4091V20.3154Z" fill="#191A23"/>
</g>
<path d="M56.2001 0.735459C46.8401 -2.41454 40.5801 5.66546 40.5801 5.66546C50.8501 9.31546 56.2001 0.735459 56.2001 0.735459Z" fill="#191A23"/>
<mask id="mask6_1028_590" style="mask-type:luminance" maskUnits="userSpaceOnUse" x="40" y="0" width="17" height="7">
<path d="M56.2001 0.735459C46.8401 -2.41454 40.5801 5.66546 40.5801 5.66546C50.8501 9.31546 56.2001 0.735459 56.2001 0.735459Z" fill="white"/>
</mask>
<g mask="url(#mask6_1028_590)">
<path d="M56.2001 6.49536H40.5801V7.02536H56.2001V6.49536Z" fill="#191A23"/>
<path d="M56.2001 5.96533H40.5801V6.49533H56.2001V5.96533Z" fill="#191A23"/>
<path d="M56.2001 5.43555H40.5801V5.96555H56.2001V5.43555Z" fill="#191A23"/>
<path d="M56.2001 4.91553H40.5801V5.44553H56.2001V4.91553Z" fill="#191A23"/>
<path d="M56.2001 4.3855H40.5801V4.9155H56.2001V4.3855Z" fill="#191A23"/>
<path d="M56.2001 3.85547H40.5801V4.38547H56.2001V3.85547Z" fill="#191A23"/>
<path d="M56.2001 3.33545H40.5801V3.86545H56.2001V3.33545Z" fill="#191A23"/>
<path d="M56.2001 2.80542H40.5801V3.33542H56.2001V2.80542Z" fill="#191A23"/>
<path d="M56.2001 2.27539H40.5801V2.80539H56.2001V2.27539Z" fill="#191A23"/>
<path d="M56.2001 1.75537H40.5801V2.28537H56.2001V1.75537Z" fill="#191A23"/>
<path d="M56.2001 1.22534H40.5801V1.75534H56.2001V1.22534Z" fill="#191A23"/>
<path d="M56.2001 0.695557H40.5801V1.22556H56.2001V0.695557Z" fill="#191A23"/>
<path d="M56.2001 0.175537H40.5801V0.705537H56.2001V0.175537Z" fill="#191A23"/>
<path d="M56.2001 -0.354492H40.5801V0.175508H56.2001V-0.354492Z" fill="#191A23"/>
</g>
<path d="M116.83 93.2854C116.83 93.2854 133.2 96.0754 140.32 82.8454C140.32 82.8454 124.42 78.5354 116.83 93.2854Z" fill="#191A23"/>
<mask id="mask7_1028_590" style="mask-type:luminance" maskUnits="userSpaceOnUse" x="116" y="82" width="25" height="12">
<path d="M116.83 93.2854C116.83 93.2854 133.2 96.0754 140.32 82.8454C140.32 82.8454 124.42 78.5354 116.83 93.2854Z" fill="white"/>
</mask>
<g mask="url(#mask7_1028_590)">
<path d="M140.32 93.4055H116.83V94.3055H140.32V93.4055Z" fill="#191A23"/>
<path d="M140.32 92.4954H116.83V93.4054H140.32V92.4954Z" fill="#191A23"/>
<path d="M140.32 91.5955H116.83V92.4955H140.32V91.5955Z" fill="#191A23"/>
<path d="M140.32 90.6853H116.83V91.5953H140.32V90.6853Z" fill="#191A23"/>
<path d="M140.32 89.7854H116.83V90.6854H140.32V89.7854Z" fill="#191A23"/>
<path d="M140.32 88.8755H116.83V89.7755H140.32V88.8755Z" fill="#191A23"/>
<path d="M140.32 87.9753H116.83V88.8853H140.32V87.9753Z" fill="#191A23"/>
<path d="M140.32 87.0654H116.83V87.9654H140.32V87.0654Z" fill="#191A23"/>
<path d="M140.32 86.1655H116.83V87.0755H140.32V86.1655Z" fill="#191A23"/>
<path d="M140.32 85.2554H116.83V86.1554H140.32V85.2554Z" fill="#191A23"/>
<path d="M140.32 84.3555H116.83V85.2555H140.32V84.3555Z" fill="#191A23"/>
<path d="M140.32 83.4453H116.83V84.3553H140.32V83.4453Z" fill="#191A23"/>
<path d="M140.32 82.5454H116.83V83.4554H140.32V82.5454Z" fill="#191A23"/>
<path d="M140.32 81.6355H116.83V82.5355H140.32V81.6355Z" fill="#191A23"/>
</g>
<path d="M127.02 79.6055C127.02 79.6055 141.26 82.0355 147.46 70.5155C147.46 70.5155 133.63 66.7655 127.02 79.6055Z" fill="#191A23"/>
<mask id="mask8_1028_590" style="mask-type:luminance" maskUnits="userSpaceOnUse" x="127" y="70" width="21" height="10">
<path d="M127.02 79.6055C127.02 79.6055 141.26 82.0355 147.46 70.5155C147.46 70.5155 133.63 66.7655 127.02 79.6055Z" fill="white"/>
</mask>
<g mask="url(#mask8_1028_590)">
<path d="M147.46 79.7053H127.02V80.4953H147.46V79.7053Z" fill="#191A23"/>
<path d="M147.46 78.9253H127.02V79.7153H147.46V78.9253Z" fill="#191A23"/>
<path d="M147.46 78.1355H127.02V78.9255H147.46V78.1355Z" fill="#191A23"/>
<path d="M147.46 77.3455H127.02V78.1355H147.46V77.3455Z" fill="#191A23"/>
<path d="M147.46 76.5554H127.02V77.3454H147.46V76.5554Z" fill="#191A23"/>
<path d="M147.46 75.7754H127.02V76.5654H147.46V75.7754Z" fill="#191A23"/>
<path d="M147.46 74.9854H127.02V75.7754H147.46V74.9854Z" fill="#191A23"/>
<path d="M147.46 74.1953H127.02V74.9853H147.46V74.1953Z" fill="#191A23"/>
<path d="M147.46 73.4053H127.02V74.1953H147.46V73.4053Z" fill="#191A23"/>
<path d="M147.46 72.6255H127.02V73.4155H147.46V72.6255Z" fill="#191A23"/>
<path d="M147.46 71.8354H127.02V72.6255H147.46V71.8354Z" fill="#191A23"/>
<path d="M147.46 71.0454H127.02V71.8354H147.46V71.0454Z" fill="#191A23"/>
<path d="M147.46 70.2554H127.02V71.0454H147.46V70.2554Z" fill="#191A23"/>
<path d="M147.46 69.4753H127.02V70.2653H147.46V69.4753Z" fill="#191A23"/>
</g>
<path d="M131.25 67.3054C131.25 67.3054 145.21 63.6754 145.58 50.7454C145.58 50.7454 131.4 53.0154 131.25 67.3054Z" fill="#191A23"/>
<mask id="mask9_1028_590" style="mask-type:luminance" maskUnits="userSpaceOnUse" x="131" y="50" width="15" height="18">
<path d="M131.25 67.3054C131.25 67.3054 145.21 63.6754 145.58 50.7454C145.58 50.7454 131.4 53.0154 131.25 67.3054Z" fill="white"/>
</mask>
<g mask="url(#mask9_1028_590)">
<path d="M145.58 67.1252H131.25V67.3052H145.58V67.1252Z" fill="#191A23"/>
<path d="M145.58 65.7954H131.25V67.1254H145.58V65.7954Z" fill="#191A23"/>
<path d="M145.58 64.4653H131.25V65.7953H145.58V64.4653Z" fill="#191A23"/>
<path d="M145.58 63.1353H131.25V64.4652H145.58V63.1353Z" fill="#191A23"/>
<path d="M145.58 61.8054H131.25V63.1354H145.58V61.8054Z" fill="#191A23"/>
<path d="M145.58 60.4753H131.25V61.8053H145.58V60.4753Z" fill="#191A23"/>
<path d="M145.58 59.1453H131.25V60.4753H145.58V59.1453Z" fill="#191A23"/>
<path d="M145.58 57.8154H131.25V59.1454H145.58V57.8154Z" fill="#191A23"/>
<path d="M145.58 56.4854H131.25V57.8153H145.58V56.4854Z" fill="#191A23"/>
<path d="M145.58 55.1653H131.25V56.4953H145.58V55.1653Z" fill="#191A23"/>
<path d="M145.58 53.8354H131.25V55.1655H145.58V53.8354Z" fill="#191A23"/>
<path d="M145.58 52.5054H131.25V53.8354H145.58V52.5054Z" fill="#191A23"/>
<path d="M145.58 51.1753H131.25V52.5053H145.58V51.1753Z" fill="#191A23"/>
<path d="M145.58 50.7454H131.25V51.1754H145.58V50.7454Z" fill="#191A23"/>
</g>
<path d="M116.219 10.5854C116.219 10.5854 116.019 2.3654 108.179 0.2854C108.179 0.2854 107.519 8.4354 116.219 10.5854Z" fill="#191A23"/>
<mask id="mask10_1028_590" style="mask-type:luminance" maskUnits="userSpaceOnUse" x="108" y="0" width="9" height="11">
<path d="M116.219 10.5854C116.219 10.5854 116.019 2.3654 108.179 0.2854C108.179 0.2854 107.519 8.4354 116.219 10.5854Z" fill="white"/>
</mask>
<g mask="url(#mask10_1028_590)">
<path d="M116.229 10.4753H107.529V10.5853H116.229V10.4753Z" fill="#191A23"/>
<path d="M116.229 9.64551H107.529V10.4755H116.229V9.64551Z" fill="#191A23"/>
<path d="M116.229 8.82544H107.529V9.65544H116.229V8.82544Z" fill="#191A23"/>
<path d="M116.229 7.99536H107.529V8.82536H116.229V7.99536Z" fill="#191A23"/>
<path d="M116.229 7.16553H107.529V7.99553H116.229V7.16553Z" fill="#191A23"/>
<path d="M116.229 6.34546H107.529V7.17546H116.229V6.34546Z" fill="#191A23"/>
<path d="M116.229 5.51538H107.529V6.34538H116.229V5.51538Z" fill="#191A23"/>
<path d="M116.229 4.6853H107.529V5.5153H116.229V4.6853Z" fill="#191A23"/>
<path d="M116.229 3.86548H107.529V4.69548H116.229V3.86548Z" fill="#191A23"/>
<path d="M116.229 3.0354H107.529V3.8654H116.229V3.0354Z" fill="#191A23"/>
<path d="M116.229 2.21533H107.529V3.04533H116.229V2.21533Z" fill="#191A23"/>
<path d="M116.229 1.3855H107.529V2.2155H116.229V1.3855Z" fill="#191A23"/>
<path d="M116.229 0.55542H107.529V1.38542H116.229V0.55542Z" fill="#191A23"/>
<path d="M116.229 0.29541H107.529V0.55541H116.229V0.29541Z" fill="#191A23"/>
</g>
<path d="M129.979 59.6455C129.979 59.6455 130.149 46.9755 118.199 43.3555C118.199 43.3555 116.699 55.8755 129.979 59.6455Z" fill="#191A23"/>
<mask id="mask11_1028_590" style="mask-type:luminance" maskUnits="userSpaceOnUse" x="118" y="43" width="12" height="17">
<path d="M129.979 59.6455C129.979 59.6455 130.149 46.9755 118.199 43.3555C118.199 43.3555 116.699 55.8755 129.979 59.6455Z" fill="white"/>
</mask>
<g mask="url(#mask11_1028_590)">
<path d="M130.149 59.4656H116.699V59.6356H130.149V59.4656Z" fill="#191A23"/>
<path d="M130.149 58.1555H116.699V59.4655H130.149V58.1555Z" fill="#191A23"/>
<path d="M130.149 56.8555H116.699V58.1655H130.149V56.8555Z" fill="#191A23"/>
<path d="M130.149 55.5454H116.699V56.8554H130.149V55.5454Z" fill="#191A23"/>
<path d="M130.149 54.2354H116.699V55.5453H130.149V54.2354Z" fill="#191A23"/>
<path d="M130.149 52.9255H116.699V54.2355H130.149V52.9255Z" fill="#191A23"/>
<path d="M130.149 51.6155H116.699V52.9255H130.149V51.6155Z" fill="#191A23"/>
<path d="M130.149 50.3154H116.699V51.6254H130.149V50.3154Z" fill="#191A23"/>
<path d="M130.149 49.0054H116.699V50.3154H130.149V49.0054Z" fill="#191A23"/>
<path d="M130.149 47.6956H116.699V49.0056H130.149V47.6956Z" fill="#191A23"/>
<path d="M130.149 46.3855H116.699V47.6955H130.149V46.3855Z" fill="#191A23"/>
<path d="M130.149 45.0854H116.699V46.3955H130.149V45.0854Z" fill="#191A23"/>
<path d="M130.149 43.7754H116.699V45.0854H130.149V43.7754Z" fill="#191A23"/>
<path d="M130.149 43.3555H116.699V43.7755H130.149V43.3555Z" fill="#191A23"/>
</g>
<path d="M125.169 29.7654C125.169 29.7654 120.149 19.4854 109.039 20.9554C109.039 20.9554 112.929 31.6054 125.169 29.7654Z" fill="#191A23"/>
<mask id="mask12_1028_590" style="mask-type:luminance" maskUnits="userSpaceOnUse" x="109" y="20" width="17" height="10">
<path d="M125.169 29.7654C125.169 29.7654 120.149 19.4854 109.039 20.9554C109.039 20.9554 112.929 31.6054 125.169 29.7654Z" fill="white"/>
</mask>
<g mask="url(#mask12_1028_590)">
<path d="M125.179 29.8853H109.049V30.6253H125.179V29.8853Z" fill="#191A23"/>
<path d="M125.179 29.1453H109.049V29.8853H125.179V29.1453Z" fill="#191A23"/>
<path d="M125.179 28.4153H109.049V29.1553H125.179V28.4153Z" fill="#191A23"/>
<path d="M125.179 27.6753H109.049V28.4153H125.179V27.6753Z" fill="#191A23"/>
<path d="M125.179 26.9453H109.049V27.6853H125.179V26.9453Z" fill="#191A23"/>
<path d="M125.179 26.2053H109.049V26.9453H125.179V26.2053Z" fill="#191A23"/>
<path d="M125.179 25.4653H109.049V26.2053H125.179V25.4653Z" fill="#191A23"/>
<path d="M125.179 24.7354H109.049V25.4754H125.179V24.7354Z" fill="#191A23"/>
<path d="M125.179 23.9954H109.049V24.7354H125.179V23.9954Z" fill="#191A23"/>
<path d="M125.179 23.2654H109.049V24.0054H125.179V23.2654Z" fill="#191A23"/>
<path d="M125.179 22.5254H109.049V23.2654H125.179V22.5254Z" fill="#191A23"/>
<path d="M125.179 21.7854H109.049V22.5254H125.179V21.7854Z" fill="#191A23"/>
<path d="M125.179 21.0554H109.049V21.7954H125.179V21.0554Z" fill="#191A23"/>
<path d="M125.179 20.3154H109.049V21.0554H125.179V20.3154Z" fill="#191A23"/>
</g>
<path d="M106.88 5.65544C106.88 5.65544 100.62 -2.41456 91.2598 0.725442C91.2598 0.725442 96.6098 9.30544 106.88 5.65544Z" fill="#191A23"/>
<mask id="mask13_1028_590" style="mask-type:luminance" maskUnits="userSpaceOnUse" x="91" y="0" width="16" height="7">
<path d="M106.88 5.65544C106.88 5.65544 100.62 -2.41456 91.2598 0.725442C91.2598 0.725442 96.6098 9.30544 106.88 5.65544Z" fill="white"/>
</mask>
<g mask="url(#mask13_1028_590)">
<path d="M106.88 6.49536H91.2598V7.02536H106.88V6.49536Z" fill="#191A23"/>
<path d="M106.88 5.96533H91.2598V6.49533H106.88V5.96533Z" fill="#191A23"/>
<path d="M106.88 5.43555H91.2598V5.96555H106.88V5.43555Z" fill="#191A23"/>
<path d="M106.88 4.91553H91.2598V5.44553H106.88V4.91553Z" fill="#191A23"/>
<path d="M106.88 4.3855H91.2598V4.9155H106.88V4.3855Z" fill="#191A23"/>
<path d="M106.88 3.85547H91.2598V4.38547H106.88V3.85547Z" fill="#191A23"/>
<path d="M106.88 3.33545H91.2598V3.86545H106.88V3.33545Z" fill="#191A23"/>
<path d="M106.88 2.80542H91.2598V3.33542H106.88V2.80542Z" fill="#191A23"/>
<path d="M106.88 2.27539H91.2598V2.80539H106.88V2.27539Z" fill="#191A23"/>
<path d="M106.88 1.75537H91.2598V2.28537H106.88V1.75537Z" fill="#191A23"/>
<path d="M106.88 1.22534H91.2598V1.75534H106.88V1.22534Z" fill="#191A23"/>
<path d="M106.88 0.695557H91.2598V1.22556H106.88V0.695557Z" fill="#191A23"/>
<path d="M106.88 0.175537H91.2598V0.705537H106.88V0.175537Z" fill="#191A23"/>
<path d="M106.88 -0.354492H91.2598V0.175508H106.88V-0.354492Z" fill="#191A23"/>
</g>
<path d="M44.6105 64.2853C42.4305 63.7053 40.2905 63.0653 38.4205 62.4153C38.0805 62.2953 37.7505 62.1753 37.4405 62.1753C33.6005 62.0353 30.3105 59.1953 30.3105 53.9853C30.3105 48.7753 33.4805 45.4653 37.8505 45.4653C42.2205 45.4653 45.1005 48.8753 45.1005 53.6453C45.1005 57.7953 43.1805 60.4653 40.4905 61.3953V61.4953C42.1005 61.9053 43.8505 62.2853 45.2205 62.5253L44.6205 64.2753L44.6105 64.2853ZM42.8805 53.7453C42.8805 50.5053 41.2005 47.1653 37.7705 47.1653C34.3405 47.1653 32.5105 50.4253 32.5405 53.9353C32.5205 57.3653 34.4105 60.4653 37.6805 60.4653C40.9505 60.4653 42.8905 57.4453 42.8905 53.7453H42.8805Z" fill="#191A23"/>
<path d="M49.8913 45.7354V55.3153C49.8913 58.9353 51.5013 60.4753 53.6613 60.4753C56.0613 60.4753 57.6012 58.8953 57.6012 55.3153V45.7354H59.7113V55.1654C59.7113 60.1354 57.0913 62.1753 53.5913 62.1753C50.2813 62.1753 47.7812 60.2754 47.7812 55.2654V45.7354H49.8913Z" fill="#191A23"/>
<path d="M65.131 56.8254L63.451 61.9154H61.291L66.791 45.7354H69.311L74.831 61.9154H72.601L70.871 56.8254H65.131ZM70.431 55.1954L68.851 50.5354C68.491 49.4754 68.251 48.5154 68.011 47.5854H67.961C67.721 48.5454 67.461 49.5254 67.141 50.5154L65.561 55.1954H70.431Z" fill="#191A23"/>
<path d="M77.2012 45.7354H79.2912V60.1654H86.2012V61.9154H77.2012V45.7354Z" fill="#191A23"/>
<path d="M90.6115 45.7354V61.9154H88.5215V45.7354H90.6115Z" fill="#191A23"/>
<path d="M97.3302 47.5053H92.4102V45.7253H104.39V47.5053H99.4501V61.9053H97.3401V47.5053H97.3302Z" fill="#191A23"/>
<path d="M110.46 61.9053V55.0453L105.35 45.7354H107.73L110.01 50.1954C110.63 51.4154 111.11 52.4054 111.62 53.5354H111.67C112.13 52.4754 112.68 51.4254 113.3 50.1954L115.63 45.7354H118.01L112.59 55.0253V61.9154H110.48L110.46 61.9053Z" fill="#191A23"/>
<path d="M42.5 29.6954C43.17 29.5854 44.05 29.4854 45.17 29.4854C46.55 29.4854 47.55 29.8054 48.2 30.3854C48.79 30.8954 49.14 31.6854 49.14 32.6454C49.14 33.6054 48.85 34.3954 48.31 34.9554C47.57 35.7354 46.37 36.1354 45.01 36.1354C44.59 36.1354 44.21 36.1154 43.89 36.0354V40.3554H42.5V29.6954ZM43.89 34.8954C44.19 34.9754 44.58 35.0054 45.04 35.0054C46.72 35.0054 47.75 34.1854 47.75 32.7054C47.75 31.2254 46.74 30.5954 45.21 30.5954C44.6 30.5954 44.14 30.6454 43.9 30.7054V34.8954H43.89Z" fill="#191A23"/>
<path d="M51.0098 29.7154C51.7098 29.5754 52.7198 29.4954 53.6798 29.4954C55.1698 29.4954 56.1298 29.7654 56.7998 30.3754C57.3398 30.8554 57.6498 31.5954 57.6498 32.4254C57.6498 33.8454 56.7498 34.7954 55.6198 35.1754V35.2254C56.4498 35.5154 56.9498 36.2854 57.1998 37.4054C57.5498 38.9054 57.8098 39.9554 58.0298 40.3654H56.5898C56.4098 40.0654 56.1698 39.1354 55.8698 37.7854C55.5498 36.2954 54.9698 35.7354 53.7098 35.6854H52.3998V40.3554H51.0098V29.7154ZM52.3998 34.6254H53.8198C55.3098 34.6254 56.2498 33.8054 56.2498 32.5754C56.2498 31.1854 55.2398 30.5754 53.7698 30.5554C53.0998 30.5554 52.6198 30.6154 52.3898 30.6854V34.6254H52.3998Z" fill="#191A23"/>
<path d="M65.1994 35.2954H61.0094V39.1854H65.6794V40.3554H59.6094V29.5654H65.4394V30.7354H61.0094V34.1454H65.1994V35.2954Z" fill="#191A23"/>
<path d="M76.5795 35.6154C76.4995 34.1154 76.3994 32.3054 76.4194 30.9554H76.3695C75.9995 32.2154 75.5495 33.5654 75.0095 35.0554L73.1095 40.2854H72.0495L70.2995 35.1454C69.7895 33.6254 69.3595 32.2354 69.0495 30.9554H69.0194C68.9894 32.2954 68.9094 34.1054 68.8094 35.7254L68.5194 40.3554H67.1895L67.9395 29.5654H69.7195L71.5594 34.7854C72.0094 36.1154 72.3795 37.2954 72.6495 38.4154H72.6994C72.9694 37.3254 73.3594 36.1454 73.8394 34.7854L75.7595 29.5654H77.5395L78.2094 40.3554H76.8494L76.5795 35.6154Z" fill="#191A23"/>
<path d="M81.7494 29.5654V40.3554H80.3594V29.5654H81.7494Z" fill="#191A23"/>
<path d="M85.5702 29.5654V35.9554C85.5702 38.3754 86.6402 39.3954 88.0802 39.3954C89.6802 39.3954 90.7001 38.3354 90.7001 35.9554V29.5654H92.1102V35.8554C92.1102 39.1654 90.3702 40.5254 88.0302 40.5254C85.8202 40.5254 84.1602 39.2654 84.1602 35.9154V29.5654H85.5702Z" fill="#191A23"/>
<path d="M103.62 35.6154C103.54 34.1154 103.44 32.3054 103.46 30.9554H103.41C103.04 32.2154 102.59 33.5654 102.05 35.0554L100.15 40.2854H99.0905L97.3405 35.1454C96.8305 33.6254 96.4005 32.2354 96.0905 30.9554H96.0605C96.0305 32.2954 95.9505 34.1054 95.8505 35.7254L95.5605 40.3554H94.2305L94.9805 29.5654H96.7605L98.6005 34.7854C99.0505 36.1154 99.4205 37.2954 99.6905 38.4154H99.7405C100.01 37.3254 100.4 36.1454 100.88 34.7854L102.8 29.5654H104.58L105.25 40.3554H103.89L103.62 35.6154Z" fill="#191A23"/>
<path d="M47.3496 21.3555C47.3496 21.3555 47.6496 21.3355 48.1696 21.2955C48.6896 21.2455 49.4296 21.1955 50.3196 21.1555C51.2096 21.1055 52.2496 21.0455 53.3596 20.9755C54.4696 20.9055 55.6596 20.8855 56.8496 20.8355C59.2196 20.7655 61.5996 20.6455 63.3796 20.6255C65.1596 20.6055 66.3496 20.5955 66.3496 20.5955V21.4955L47.3496 21.4555V21.3555Z" fill="#191A23"/>
<path d="M81.3496 20.5954C81.3496 20.5954 82.5196 20.6055 84.2796 20.6255C86.0396 20.6555 88.3796 20.7554 90.7296 20.8354C93.0796 20.8954 95.4196 21.0454 97.1796 21.1454C98.0596 21.1954 98.7896 21.2454 99.3096 21.2854C99.8196 21.3254 100.12 21.3454 100.12 21.3454V21.4454L81.3596 21.4854V20.5854L81.3496 20.5954Z" fill="#191A23"/>
<path d="M47.3496 69.6655L66.3496 69.6255V70.5255C66.3496 70.5255 65.1596 70.5155 63.3796 70.4955C61.5996 70.4855 59.2196 70.3655 56.8496 70.2855C55.6596 70.2355 54.4796 70.2155 53.3596 70.1455C52.2496 70.0855 51.2096 70.0255 50.3196 69.9655C49.4296 69.9155 48.6896 69.8655 48.1696 69.8255C47.6496 69.7855 47.3496 69.7655 47.3496 69.7655V69.6655Z" fill="#191A23"/>
<path d="M81.3498 69.6255L100.11 69.6655V69.7655C100.11 69.7655 99.8199 69.7855 99.2999 69.8255C98.7899 69.8655 98.0498 69.9155 97.1698 69.9655C95.4098 70.0655 93.0698 70.2155 90.7198 70.2755C88.3698 70.3455 86.0298 70.4555 84.2698 70.4855C82.5098 70.5055 81.3398 70.5155 81.3398 70.5155V69.6155L81.3498 69.6255Z" fill="#191A23"/>
<path d="M73.7305 75.4954L76.3605 80.8154L82.2305 81.6754L77.9805 85.8154L78.9805 91.6654L73.7305 88.9054L68.4805 91.6654L69.4805 85.8154L65.2305 81.6754L71.1005 80.8154L73.7305 75.4954Z" fill="#191A23"/>
<path d="M92.4099 75.4954L94.1899 79.0854L98.1499 79.6654L95.2799 82.4654L95.9599 86.4154L92.4099 84.5454L88.8699 86.4154L89.5399 82.4654L86.6699 79.6654L90.6399 79.0854L92.4099 75.4954Z" fill="#191A23"/>
<path d="M55.4295 75.4954L57.1995 79.0854L61.1695 79.6654L58.2995 82.4654L58.9695 86.4154L55.4295 84.5454L51.8795 86.4154L52.5595 82.4654L49.6895 79.6654L53.6495 79.0854L55.4295 75.4954Z" fill="#191A23"/>
</svg>
