<svg width="360" height="257" viewBox="0 0 360 257" fill="none" xmlns="http://www.w3.org/2000/svg">
<path d="M153.986 73.3251C111.796 93.2178 75.3073 114.813 50.4198 133.641C37.9727 143.057 28.4492 151.765 22.5636 159.205C19.6203 162.926 17.6049 166.308 16.5796 169.284C15.5552 172.258 15.533 174.784 16.5045 176.844C17.4759 178.904 19.4382 180.494 22.3845 181.596C25.3331 182.698 29.2244 183.295 33.9676 183.392C43.4526 183.585 56.23 181.778 71.4137 178.166C101.773 170.944 141.65 156.533 183.839 136.64C226.029 116.747 262.518 95.1518 287.405 76.3246C299.852 66.9085 309.376 58.2005 315.261 50.76C318.205 47.0392 320.22 43.6574 321.245 40.6809C322.27 37.7067 322.292 35.1816 321.32 33.1213C320.349 31.0609 318.387 29.4715 315.44 28.3695C312.492 27.2668 308.601 26.6701 303.857 26.5735C294.372 26.3803 281.595 28.1873 266.411 31.7993C236.052 39.0213 196.175 53.4325 153.986 73.3251Z" stroke="#191A23"/>
<path d="M165.501 97.7465C123.312 117.639 86.8229 139.235 61.9354 158.062C49.4883 167.478 39.9649 176.186 34.0792 183.627C31.1359 187.347 29.1205 190.729 28.0952 193.706C27.0708 196.68 27.0486 199.205 28.0201 201.265C28.9916 203.326 30.9538 204.915 33.9001 206.017C36.8488 207.12 40.7401 207.717 45.4833 207.813C54.9683 208.006 67.7456 206.199 82.9294 202.587C113.289 195.365 153.165 180.954 195.355 161.061C237.544 141.169 274.033 119.573 298.921 100.746C311.368 91.3299 320.891 82.6219 326.777 75.1814C329.72 71.4605 331.736 68.0788 332.761 65.1023C333.785 62.1281 333.808 59.603 332.836 57.5427C331.865 55.4823 329.902 53.8929 326.956 52.7909C324.007 51.6882 320.116 51.0915 315.373 50.9949C305.888 50.8017 293.111 52.6087 277.927 56.2207C247.567 63.4427 207.691 77.8539 165.501 97.7465Z" stroke="#191A23"/>
<path d="M176.162 120.359C133.972 140.252 97.4831 161.848 72.5955 180.675C60.1485 190.091 50.625 198.799 44.7393 206.239C41.7961 209.96 39.7806 213.342 38.7554 216.318C37.731 219.293 37.7088 221.818 38.6802 223.878C39.6517 225.938 41.6139 227.528 44.5603 228.63C47.5089 229.733 51.4002 230.329 56.1434 230.426C65.6284 230.619 78.4058 228.812 93.5895 225.2C123.949 217.978 163.825 203.567 206.015 183.674C248.205 163.782 284.693 142.186 309.581 123.359C322.028 113.943 331.551 105.235 337.437 97.7942C340.38 94.0733 342.396 90.6916 343.421 87.7151C344.446 84.7409 344.468 82.2158 343.496 80.1555C342.525 78.0951 340.563 76.5057 337.616 75.4037C334.668 74.301 330.776 73.7043 326.033 73.6077C316.548 73.4145 303.771 75.2215 288.587 78.8335C258.228 86.0555 218.351 100.467 176.162 120.359Z" stroke="#191A23"/>
</svg>
