<svg width="138" height="124" viewBox="0 0 138 124" fill="none" xmlns="http://www.w3.org/2000/svg">
<path d="M22.499 75.4999C23.899 76.3599 25.959 77.0799 28.119 77.0799C31.319 77.0799 33.199 75.3899 33.199 72.9399C33.199 70.6699 31.899 69.3799 28.629 68.1199C24.669 66.7199 22.219 64.6599 22.219 61.2399C22.219 57.4599 25.349 54.6499 30.069 54.6499C32.549 54.6499 34.349 55.2299 35.429 55.8399L34.569 58.3999C33.779 57.9699 32.159 57.2499 29.959 57.2499C26.649 57.2499 25.389 59.2299 25.389 60.8899C25.389 63.1599 26.869 64.2699 30.209 65.5699C34.309 67.1499 36.399 69.1299 36.399 72.6999C36.399 76.4399 33.629 79.6799 27.899 79.6799C25.559 79.6799 22.999 78.9999 21.709 78.1299L22.499 75.4999Z" fill="#191A23"/>
<path d="M51.3998 67.9398H41.9698V76.6898H52.4798V79.3198H38.8398V55.0598H51.9398V57.6898H41.9698V65.3598H51.3998V67.9498V67.9398Z" fill="#191A23"/>
<path d="M54.7188 55.0498H57.8487V76.6798H68.2188V79.3098H54.7188V55.0498Z" fill="#191A23"/>
<path d="M69.8691 55.0498H72.9991V76.6798H83.3691V79.3098H69.8691V55.0498Z" fill="#191A23"/>
<path d="M97.5893 67.9398H88.1593V76.6898H98.6693V79.3198H85.0293V55.0598H98.1293V57.6898H88.1593V65.3598H97.5893V67.9498V67.9398Z" fill="#191A23"/>
<path d="M100.898 55.3699C102.478 55.0499 104.748 54.8699 106.908 54.8699C110.258 54.8699 112.418 55.4799 113.928 56.8499C115.148 57.9299 115.838 59.5899 115.838 61.4599C115.838 64.6599 113.818 66.7899 111.268 67.6499V67.7599C113.138 68.4099 114.258 70.1399 114.828 72.6599C115.618 76.0399 116.198 78.3799 116.698 79.3199H113.458C113.058 78.6399 112.518 76.5499 111.838 73.5199C111.118 70.1699 109.818 68.9099 106.978 68.7999H104.028V79.3099H100.898V55.3699ZM104.028 66.4199H107.228C110.578 66.4199 112.698 64.5799 112.698 61.8099C112.698 58.6799 110.428 57.3099 107.118 57.2699C105.608 57.2699 104.528 57.4099 104.018 57.5599V66.4099L104.028 66.4199Z" fill="#191A23"/>
<path d="M31.4776 48.0299L27.2676 35.1199H29.0676L31.0776 41.4799C31.6276 43.2199 32.1076 44.7899 32.4576 46.3099H32.4976C32.8576 44.8199 33.3976 43.1899 33.9676 41.4999L36.1476 35.1199H37.9276L33.3076 48.0299H31.4676H31.4776Z" fill="#191A23"/>
<path d="M46.0084 41.9799H40.9884V46.6299H46.5784V48.0299H39.3184V35.1199H46.2884V36.5199H40.9884V40.5999H46.0084V41.9799Z" fill="#191A23"/>
<path d="M48.7383 35.29C49.5783 35.12 50.7883 35.02 51.9383 35.02C53.7183 35.02 54.8683 35.35 55.6683 36.07C56.3183 36.64 56.6783 37.53 56.6783 38.52C56.6783 40.22 55.6083 41.35 54.2483 41.81V41.87C55.2483 42.21 55.8383 43.13 56.1483 44.47C56.5683 46.27 56.8783 47.51 57.1483 48.01H55.4283C55.2183 47.65 54.9283 46.54 54.5683 44.93C54.1883 43.15 53.4983 42.48 51.9783 42.42H50.4083V48.01H48.7383V35.28V35.29ZM50.4083 41.17H52.1183C53.8983 41.17 55.0283 40.19 55.0283 38.72C55.0283 37.05 53.8183 36.33 52.0583 36.31C51.2583 36.31 50.6783 36.39 50.4083 36.46V41.17Z" fill="#191A23"/>
<path d="M61.707 48.0299V42.5499L57.627 35.1199H59.527L61.347 38.6799C61.847 39.6599 62.227 40.4399 62.627 41.3399H62.667C63.027 40.4999 63.467 39.6499 63.967 38.6799L65.827 35.1199H67.727L63.397 42.5299V48.0299H61.717H61.707Z" fill="#191A23"/>
<path d="M73.2483 35.29C73.9783 35.14 75.1283 35.02 76.2883 35.02C77.9583 35.02 79.0283 35.31 79.8283 35.96C80.4983 36.46 80.8983 37.22 80.8983 38.24C80.8983 39.48 80.0783 40.58 78.7183 41.07V41.11C79.9483 41.42 81.3783 42.43 81.3783 44.35C81.3783 45.46 80.9383 46.3 80.2883 46.94C79.3883 47.76 77.9283 48.15 75.8283 48.15C74.6783 48.15 73.7983 48.07 73.2383 48V35.3L73.2483 35.29ZM74.9183 40.58H76.4283C78.1883 40.58 79.2283 39.66 79.2283 38.42C79.2283 36.91 78.0783 36.31 76.3983 36.31C75.6283 36.31 75.1883 36.37 74.9283 36.42V40.58H74.9183ZM74.9183 46.77C75.2483 46.83 75.7183 46.85 76.3183 46.85C78.0383 46.85 79.6283 46.22 79.6283 44.34C79.6283 42.58 78.1183 41.85 76.2983 41.85H74.9183V46.77Z" fill="#191A23"/>
<path d="M90.3072 41.9799H85.2872V46.6299H90.8772V48.0299H83.6172V35.1199H90.5872V36.5199H85.2872V40.5999H90.3072V41.9799Z" fill="#191A23"/>
<path d="M92.8067 45.9999C93.5567 46.4599 94.6467 46.8399 95.7967 46.8399C97.4967 46.8399 98.4967 45.9399 98.4967 44.6399C98.4967 43.4299 97.8067 42.7399 96.0667 42.0699C93.9567 41.3199 92.6567 40.2299 92.6567 38.4099C92.6567 36.3999 94.3267 34.9099 96.8267 34.9099C98.1467 34.9099 99.1067 35.2199 99.6767 35.5399L99.2167 36.8999C98.7967 36.6699 97.9367 36.2899 96.7667 36.2899C95.0067 36.2899 94.3367 37.3399 94.3367 38.2199C94.3367 39.4299 95.1267 40.0199 96.9067 40.7099C99.0867 41.5499 100.197 42.6099 100.197 44.4999C100.197 46.4899 98.7267 48.2099 95.6767 48.2099C94.4367 48.2099 93.0767 47.8499 92.3867 47.3899L92.8067 45.9899V45.9999Z" fill="#191A23"/>
<path d="M104.928 36.5399H100.998V35.1199H110.558V36.5399H106.618V48.0299H104.928V36.5399Z" fill="#191A23"/>
<path d="M32.8574 22.8101C34.2774 22.6201 35.6874 22.4501 37.1074 22.3301L41.3574 21.9301C42.7774 21.8001 44.1874 21.7301 45.6074 21.6201C47.0274 21.5101 48.4374 21.4501 49.8574 21.3801V23.0901L32.8574 23.0401V22.8201V22.8101Z" fill="#191A23"/>
<path d="M86.7578 21.3301C89.5878 21.4501 92.4278 21.6401 95.2578 21.8401L99.5078 22.2301C100.928 22.3701 102.338 22.4701 103.758 22.6701V23.0401L86.7578 23.0901V21.3301Z" fill="#191A23"/>
<path d="M68.8579 84.9399L71.7279 90.7499L78.1379 91.6799L73.4979 96.1999L74.5979 102.58L68.8579 99.5699L63.1279 102.58L64.2279 96.1999L59.5879 91.6799L65.9979 90.7499L68.8579 84.9399Z" fill="#191A23"/>
<path d="M89.0473 84.9399L90.9773 88.8599L95.3073 89.4899L92.1773 92.5399L92.9173 96.8499L89.0473 94.8199L85.1773 96.8499L85.9173 92.5399L82.7773 89.4899L87.1073 88.8599L89.0473 84.9399Z" fill="#191A23"/>
<path d="M48.678 84.9399L50.618 88.8599L54.938 89.4899L51.808 92.5399L52.548 96.8499L48.678 94.8199L44.808 96.8499L45.548 92.5399L42.418 89.4899L46.738 88.8599L48.678 84.9399Z" fill="#191A23"/>
<path fill-rule="evenodd" clip-rule="evenodd" d="M23.5977 14.57C29.1177 10.45 34.8677 4.22 44.6477 0C37.4877 0.05 26.2377 5.33 23.5977 14.57Z" fill="#191A23"/>
<path fill-rule="evenodd" clip-rule="evenodd" d="M29.9491 15.9001C28.7891 16.5101 27.9291 16.9001 26.9691 17.1701C25.1791 17.6801 23.6791 17.8201 22.1291 18.4301C20.8891 18.9101 19.8891 19.6301 19.0091 20.5001C18.2091 21.2901 17.6191 22.0101 17.1591 22.7801C16.2391 24.3301 15.4491 26.7401 15.4591 28.5501C16.1891 27.6801 16.8391 27.0201 17.5391 26.4201C18.6091 25.5101 19.6691 24.8601 20.8191 24.3001C21.6591 23.8901 22.3991 23.5101 23.0891 23.0901C26.1191 21.2901 27.8891 18.6501 29.9391 15.8901L29.9491 15.9001Z" fill="#191A23"/>
<path fill-rule="evenodd" clip-rule="evenodd" d="M15.4493 28.6C15.4493 25.97 17.5493 21.48 18.7593 19.78C19.6193 18.57 20.2493 17.21 20.8293 15.8C21.8693 13.3 22.7593 10.44 23.0393 8.27002C21.7193 9.21002 20.4093 10.13 18.9193 11.44C15.8093 14.39 14.0693 17.55 14.4793 21.89C14.6293 23.53 14.6893 27.12 15.4393 28.6H15.4493Z" fill="#191A23"/>
<path fill-rule="evenodd" clip-rule="evenodd" d="M20.9583 29.05C19.9383 29.87 19.1683 30.42 18.2783 30.88C16.6183 31.73 15.1783 32.1701 13.7783 33.0601C12.6583 33.7801 11.8183 34.6801 11.1283 35.7001C10.4983 36.6301 10.0583 37.4501 9.7683 38.2901C9.1683 39.9901 8.8583 42.51 9.2283 44.28C9.7683 43.29 10.2783 42.5101 10.8483 41.7901C11.7183 40.6801 12.6283 39.85 13.6483 39.07C14.3883 38.5 15.0383 37.9801 15.6383 37.4501C18.2583 35.0901 19.4883 32.16 20.9583 29.06V29.05Z" fill="#191A23"/>
<path fill-rule="evenodd" clip-rule="evenodd" d="M9.2076 44.3499C8.6876 41.7699 9.8776 36.9499 10.7376 35.0599C11.3476 33.7099 11.6976 32.2499 11.9976 30.7499C12.5276 28.0999 12.8376 25.1199 12.6976 22.9399C11.5876 24.1199 10.4776 25.2699 9.2776 26.8499C6.7976 30.3499 5.7176 33.7999 6.9576 37.9699C7.4276 39.5499 8.1876 43.0599 9.2076 44.3599V44.3499Z" fill="#191A23"/>
<path fill-rule="evenodd" clip-rule="evenodd" d="M15.5481 42.23C14.7181 43.43 14.0881 44.26 13.2781 45.02C11.7781 46.45 10.3881 47.37 9.17814 48.76C8.20814 49.88 7.59814 51.1 7.18814 52.41C6.81814 53.6 6.60814 54.61 6.55814 55.6C6.45814 57.59 6.92814 60.38 7.87814 62.15C8.13814 60.92 8.43814 59.93 8.81814 58.98C9.39814 57.53 10.0981 56.35 10.9381 55.2C11.5481 54.36 12.0781 53.6 12.5481 52.84C14.5881 49.5 14.9681 45.99 15.5481 42.22V42.23Z" fill="#191A23"/>
<path fill-rule="evenodd" clip-rule="evenodd" d="M7.87829 62.2301C6.50829 59.6501 6.24829 54.1501 6.55829 51.8501C6.77829 50.2201 6.68829 48.5501 6.52829 46.8601C6.25829 43.8701 5.63829 40.6001 4.79829 38.3201C3.98829 39.9301 3.17829 41.5001 2.39829 43.5701C0.868285 48.0801 0.798285 52.0901 3.44829 56.1401C4.44829 57.6701 6.36829 61.1701 7.86829 62.2301H7.87829Z" fill="#191A23"/>
<path fill-rule="evenodd" clip-rule="evenodd" d="M13.029 57.73C12.459 59.11 11.999 60.07 11.349 61.01C10.149 62.76 8.94902 63.98 8.04902 65.63C7.31902 66.96 6.96902 68.31 6.83902 69.7C6.71902 70.97 6.72902 72.02 6.88902 73.03C7.20902 75.05 8.27902 77.74 9.60902 79.31C9.60902 78.02 9.69902 76.97 9.86902 75.94C10.139 74.36 10.589 73.03 11.189 71.7C11.619 70.73 11.989 69.86 12.289 69C13.619 65.22 13.249 61.63 13.029 57.73Z" fill="#191A23"/>
<path fill-rule="evenodd" clip-rule="evenodd" d="M9.61829 79.3801C7.69829 77.0901 6.26829 71.6301 6.08829 69.2701C5.95829 67.5901 5.51829 65.9401 4.99829 64.2801C4.08829 61.3401 2.77829 58.2001 1.44829 56.1001C0.978292 57.8801 0.508292 59.6301 0.168292 61.8701C-0.401708 66.7101 0.388292 70.7401 3.89829 74.2301C5.22829 75.5501 7.88829 78.6401 9.61829 79.3801Z" fill="#191A23"/>
<path fill-rule="evenodd" clip-rule="evenodd" d="M13.3085 72.54C13.1685 74.14 12.9985 75.28 12.6385 76.46C11.9685 78.65 11.1285 80.29 10.7185 82.28C10.3985 83.88 10.4685 85.39 10.7785 86.87C11.0585 88.22 11.4085 89.3 11.8985 90.29C12.8785 92.26 14.8485 94.69 16.7185 95.88C16.3085 94.55 16.0585 93.44 15.9085 92.32C15.6785 90.61 15.7185 89.09 15.9085 87.53C16.0385 86.39 16.1385 85.38 16.1785 84.39C16.3385 80.07 14.7985 76.49 13.3185 72.54H13.3085Z" fill="#191A23"/>
<path fill-rule="evenodd" clip-rule="evenodd" d="M16.7577 95.9301C14.0377 94.1901 10.8077 89.0301 9.86766 86.6601C9.19766 84.9601 8.20766 83.4201 7.13766 81.8701C5.24766 79.1401 2.89766 76.3301 0.847656 74.5901C0.937656 76.5801 1.00766 78.5301 1.38766 80.9401C2.35766 86.1001 4.46766 90.0001 9.20766 92.4701C10.9977 93.4001 14.7377 95.7301 16.7577 95.9401V95.9301Z" fill="#191A23"/>
<path fill-rule="evenodd" clip-rule="evenodd" d="M18.3984 87.3C18.7984 89.06 19.0084 90.34 19.0284 91.71C19.0684 94.27 18.7284 96.31 18.9784 98.58C19.1784 100.4 19.7784 101.98 20.6184 103.45C21.3784 104.79 22.1184 105.82 22.9884 106.71C24.7184 108.48 27.6384 110.39 30.0384 111.01C29.1384 109.74 28.4884 108.63 27.9484 107.49C27.1184 105.74 26.6384 104.11 26.2984 102.39C26.0484 101.13 25.8084 100.01 25.5084 98.95C24.1884 94.29 21.3284 91 18.3984 87.3Z" fill="#191A23"/>
<path fill-rule="evenodd" clip-rule="evenodd" d="M30.1079 111.06C26.6079 110.14 21.3979 105.75 19.5879 103.53C18.2879 101.96 16.7079 100.64 15.0379 99.36C12.0879 97.09 8.60789 94.9 5.83789 93.75C6.61789 95.83 7.36789 97.9 8.58789 100.34C11.3979 105.51 14.9779 108.95 20.8779 109.95C23.1079 110.33 27.8879 111.53 30.1179 111.05L30.1079 111.06Z" fill="#191A23"/>
<path fill-rule="evenodd" clip-rule="evenodd" d="M29.0879 101.15C30.1579 102.77 30.8579 103.97 31.3879 105.34C32.3779 107.89 32.7879 110.05 33.8979 112.23C34.7879 113.98 36.0079 115.35 37.4379 116.52C38.7379 117.59 39.9079 118.36 41.1479 118.94C43.6279 120.09 47.4179 120.97 50.1879 120.73C48.7679 119.78 47.6779 118.9 46.6779 117.96C45.1479 116.51 44.0379 115.05 43.0479 113.44C42.3179 112.27 41.6479 111.24 40.9279 110.28C37.8079 106.09 33.5579 103.82 29.0979 101.16L29.0879 101.15Z" fill="#191A23"/>
<path fill-rule="evenodd" clip-rule="evenodd" d="M50.278 120.75C46.248 121.07 39.118 118.53 36.388 116.97C34.438 115.86 32.278 115.11 30.038 114.42C26.088 113.2 21.608 112.25 18.248 112.09C19.848 113.9 21.398 115.69 23.598 117.7C28.488 121.88 33.538 124.04 40.128 122.93C42.618 122.51 48.108 122.01 50.278 120.74V120.75Z" fill="#191A23"/>
<path fill-rule="evenodd" clip-rule="evenodd" d="M114.13 14.57C108.61 10.45 102.86 4.22 93.0801 0C100.24 0.05 111.5 5.33 114.13 14.57Z" fill="#191A23"/>
<path fill-rule="evenodd" clip-rule="evenodd" d="M107.77 15.9001C108.93 16.5101 109.79 16.9001 110.75 17.1701C112.54 17.6801 114.04 17.8201 115.59 18.4301C116.83 18.9101 117.83 19.6301 118.71 20.5001C119.51 21.2901 120.1 22.0101 120.56 22.7801C121.48 24.3301 122.27 26.7401 122.26 28.5501C121.53 27.6801 120.88 27.0201 120.18 26.4201C119.11 25.5101 118.05 24.8601 116.9 24.3001C116.06 23.8901 115.32 23.5101 114.63 23.0901C111.6 21.2901 109.83 18.6501 107.78 15.8901L107.77 15.9001Z" fill="#191A23"/>
<path fill-rule="evenodd" clip-rule="evenodd" d="M122.279 28.6C122.279 25.97 120.179 21.48 118.969 19.78C118.109 18.57 117.479 17.21 116.899 15.8C115.859 13.3 114.969 10.44 114.689 8.27002C116.009 9.21002 117.319 10.13 118.809 11.44C121.919 14.39 123.659 17.55 123.249 21.89C123.089 23.53 123.039 27.12 122.289 28.6H122.279Z" fill="#191A23"/>
<path fill-rule="evenodd" clip-rule="evenodd" d="M116.77 29.05C117.79 29.87 118.55 30.42 119.45 30.88C121.11 31.73 122.55 32.1701 123.95 33.0601C125.07 33.7801 125.91 34.6801 126.6 35.7001C127.23 36.6301 127.67 37.4501 127.97 38.2901C128.57 39.9901 128.88 42.51 128.51 44.28C127.97 43.29 127.46 42.5101 126.89 41.7901C126.02 40.6801 125.11 39.85 124.09 39.07C123.35 38.5 122.7 37.9801 122.1 37.4501C119.48 35.0901 118.25 32.16 116.78 29.06L116.77 29.05Z" fill="#191A23"/>
<path fill-rule="evenodd" clip-rule="evenodd" d="M128.52 44.3499C129.04 41.7699 127.85 36.9499 126.99 35.0599C126.38 33.7099 126.03 32.2499 125.73 30.7499C125.2 28.0999 124.89 25.1199 125.03 22.9399C126.14 24.1199 127.25 25.2699 128.45 26.8499C130.92 30.3499 132.01 33.7999 130.77 37.9699C130.3 39.5499 129.54 43.0599 128.52 44.3599V44.3499Z" fill="#191A23"/>
<path fill-rule="evenodd" clip-rule="evenodd" d="M122.18 42.23C123.01 43.43 123.65 44.26 124.45 45.02C125.95 46.45 127.34 47.37 128.55 48.76C129.52 49.88 130.13 51.1 130.54 52.41C130.91 53.6 131.12 54.61 131.17 55.6C131.27 57.59 130.8 60.38 129.85 62.15C129.59 60.92 129.29 59.93 128.91 58.98C128.33 57.53 127.63 56.35 126.79 55.2C126.18 54.36 125.65 53.6 125.18 52.84C123.14 49.5 122.76 45.99 122.18 42.22V42.23Z" fill="#191A23"/>
<path fill-rule="evenodd" clip-rule="evenodd" d="M129.85 62.2301C131.22 59.6501 131.48 54.1501 131.17 51.8501C130.95 50.2201 131.04 48.5501 131.2 46.8601C131.48 43.8701 132.09 40.6001 132.93 38.3201C133.74 39.9301 134.55 41.5001 135.33 43.5701C136.86 48.0801 136.92 52.0901 134.28 56.1401C133.28 57.6701 131.36 61.1701 129.86 62.2301H129.85Z" fill="#191A23"/>
<path fill-rule="evenodd" clip-rule="evenodd" d="M124.689 57.73C125.259 59.11 125.729 60.07 126.369 61.01C127.569 62.76 128.769 63.98 129.669 65.63C130.399 66.96 130.749 68.31 130.879 69.7C130.999 70.97 130.989 72.02 130.829 73.03C130.509 75.05 129.439 77.74 128.109 79.31C128.109 78.02 128.019 76.97 127.849 75.94C127.579 74.36 127.129 73.03 126.529 71.7C126.099 70.73 125.729 69.86 125.429 69C124.099 65.22 124.469 61.63 124.689 57.73Z" fill="#191A23"/>
<path fill-rule="evenodd" clip-rule="evenodd" d="M128.1 79.3801C130.02 77.0901 131.45 71.6301 131.63 69.2701C131.76 67.5901 132.2 65.9401 132.72 64.2801C133.63 61.3401 134.94 58.2001 136.27 56.1001C136.74 57.8801 137.21 59.6301 137.55 61.8701C138.12 66.7101 137.33 70.7401 133.82 74.2301C132.49 75.5501 129.83 78.6401 128.1 79.3801Z" fill="#191A23"/>
<path fill-rule="evenodd" clip-rule="evenodd" d="M124.418 72.54C124.558 74.14 124.728 75.28 125.088 76.46C125.758 78.65 126.598 80.29 127.008 82.28C127.328 83.88 127.258 85.39 126.948 86.87C126.668 88.22 126.318 89.3 125.828 90.29C124.848 92.26 122.878 94.69 121.008 95.88C121.428 94.55 121.678 93.44 121.818 92.32C122.048 90.61 122.008 89.09 121.818 87.53C121.688 86.39 121.588 85.38 121.548 84.39C121.398 80.07 122.928 76.49 124.408 72.54H124.418Z" fill="#191A23"/>
<path fill-rule="evenodd" clip-rule="evenodd" d="M120.969 95.9301C123.689 94.1901 126.919 89.0301 127.859 86.6601C128.529 84.9601 129.519 83.4201 130.589 81.8701C132.479 79.1401 134.829 76.3301 136.879 74.5901C136.789 76.5801 136.719 78.5301 136.339 80.9401C135.369 86.1001 133.259 90.0001 128.519 92.4701C126.729 93.4001 122.989 95.7301 120.969 95.9401V95.9301Z" fill="#191A23"/>
<path fill-rule="evenodd" clip-rule="evenodd" d="M119.329 87.3C118.929 89.06 118.719 90.34 118.699 91.71C118.659 94.27 118.999 96.31 118.749 98.58C118.549 100.4 117.949 101.98 117.109 103.45C116.349 104.79 115.599 105.82 114.739 106.71C113.019 108.48 110.089 110.39 107.689 111.01C108.589 109.74 109.239 108.63 109.779 107.49C110.609 105.74 111.089 104.11 111.429 102.39C111.679 101.13 111.919 100.01 112.219 98.95C113.539 94.29 116.399 91 119.329 87.3Z" fill="#191A23"/>
<path fill-rule="evenodd" clip-rule="evenodd" d="M107.619 111.06C111.119 110.14 116.319 105.75 118.139 103.53C119.439 101.96 121.019 100.64 122.689 99.36C125.639 97.09 129.119 94.9 131.889 93.75C131.109 95.83 130.359 97.9 129.139 100.34C126.329 105.51 122.749 108.95 116.849 109.95C114.619 110.33 109.839 111.53 107.609 111.05L107.619 111.06Z" fill="#191A23"/>
<path fill-rule="evenodd" clip-rule="evenodd" d="M108.639 101.15C107.569 102.77 106.869 103.97 106.339 105.34C105.349 107.89 104.939 110.05 103.829 112.23C102.939 113.98 101.719 115.35 100.289 116.52C98.9891 117.59 97.8191 118.36 96.5791 118.94C94.0991 120.09 90.3091 120.97 87.5391 120.73C88.9591 119.78 90.0491 118.9 91.0491 117.96C92.5791 116.51 93.6891 115.05 94.6891 113.44C95.4191 112.27 96.0891 111.24 96.7991 110.28C99.9191 106.09 104.169 103.82 108.629 101.16L108.639 101.15Z" fill="#191A23"/>
<path fill-rule="evenodd" clip-rule="evenodd" d="M87.4492 120.75C91.4792 121.07 98.5992 118.53 101.339 116.97C103.289 115.86 105.449 115.11 107.689 114.42C111.639 113.2 116.119 112.25 119.479 112.09C117.879 113.9 116.329 115.69 114.129 117.7C109.239 121.88 104.189 124.04 97.5992 122.93C95.1092 122.51 89.6192 122.01 87.4492 120.74V120.75Z" fill="#191A23"/>
<path d="M58.8891 26.64L68.7991 26.8L78.7091 26.59C78.7091 25.74 78.8391 24.77 79.0591 23.77H58.5391C58.7591 24.77 58.8891 25.79 58.8891 26.64Z" fill="#191A23"/>
<path d="M83.2381 14.0099C82.6481 14.0099 82.1781 14.4899 82.1781 15.0699C82.1781 15.2099 82.2081 15.3399 82.2581 15.4599L79.9381 16.4899C78.4181 17.2099 76.6281 16.1799 76.4181 14.4999L76.3681 14.0999C77.0981 13.9899 77.6481 13.3799 77.6481 12.6199C77.6481 11.7899 76.9781 11.1199 76.1481 11.1199C75.3181 11.1199 74.6481 11.7899 74.6481 12.6199C74.6481 12.9899 74.7881 13.3199 75.0081 13.5799L74.2481 14.3099C73.0981 15.4199 71.1781 14.9499 70.6581 13.4399L69.4981 10.0599C70.3281 9.76993 70.9281 8.97993 70.9281 8.04993C70.9281 6.87993 69.9781 5.92993 68.8081 5.92993C67.6381 5.92993 66.6881 6.87993 66.6881 8.04993C66.6881 8.97993 67.2881 9.76993 68.1181 10.0599L66.9581 13.4399C66.4381 14.9499 64.5181 15.4099 63.3681 14.2999L62.6081 13.5699C62.8181 13.3099 62.9481 12.9899 62.9481 12.6299C62.9481 11.7999 62.2781 11.1299 61.4481 11.1299C60.6181 11.1299 59.9481 11.7999 59.9481 12.6299C59.9481 13.3899 60.5181 14.0099 61.2481 14.1099L61.2081 14.4599C60.9981 16.1399 59.2081 17.1199 57.6881 16.3899L55.3781 15.4399C55.4181 15.3299 55.4481 15.1999 55.4481 15.0799C55.4481 14.4899 54.9681 14.0199 54.3881 14.0199C53.8081 14.0199 53.3281 14.4999 53.3281 15.0799C53.3281 15.6599 53.8081 16.1399 54.3881 16.1399C54.6081 16.1399 54.8081 15.6899 54.9781 15.5699C55.6481 16.6799 56.7681 17.7799 57.6481 20.7799H80.0081C80.8881 17.7799 81.9981 16.6799 82.6781 15.5699C82.8481 15.6799 83.0481 15.9399 83.2681 15.9399C83.8581 15.9399 84.3281 15.5599 84.3281 14.9699C84.3281 14.3799 83.8481 13.9999 83.2681 13.9999L83.2381 14.0099Z" fill="#191A23"/>
<path d="M58.2989 22.77H79.2889C79.4089 21.77 79.5489 21.77 79.6989 20.77H57.8789C58.0289 21.77 58.1689 21.77 58.2889 22.77H58.2989Z" fill="#191A23"/>
</svg>
